<?xml version="1.0" encoding="utf-8"?>
<!-- Uploaded to: SVG Repo, www.svgrepo.com, Generator: SVG Repo Mixer Tools -->
<svg width="800px" height="800px" viewBox="0 -23.57 373.803 373.803" xmlns="http://www.w3.org/2000/svg"><defs><style>.a{fill:#ffffff;}.b{fill:#211715;}.c{fill:#7a7473;}.d{fill:#ffda71;}</style></defs><path class="a" d="M98.622,218.558c-4.645-.137-8.706-.249-11.961-.327a4.989,4.989,0,0,0-5.036,5.834c4.582,26.813,9.427,54.823,15.567,90.069a5,5,0,0,0,4.5,4.13c24.31,2.073,105.738,5.518,124.655,6a7.956,7.956,0,0,0,4.294-1.129c8.225-4.925,40.487-23.39,57.07-34.179,0,0-1-5.938-1.453-7.675-.9.439-1.86.877-2.847,1.286a15.17,15.17,0,0,1-11.675-.05,85.285,85.285,0,0,1-10.649,9.971c-.712.571-3.073,2.307-5,.674-1.265-1.073-.969-3.527-.345-4.483,3-4.607,4.282-8.023,7.606-12.269-5.511,3.424-10.812,7.432-16.3,10.909-1.786,1.13-3.274,2.112-5.355,1.747a3.825,3.825,0,0,1-3.219-3.985,5.917,5.917,0,0,1,1.062-2.8,18.256,18.256,0,0,1-4.858,1.824,3.3,3.3,0,0,1-4.081-3.621,4.835,4.835,0,0,1,1.229-3.1l.886-1.124-1.153.243a4.339,4.339,0,0,1-4.54-1.69c-.84-1.24-.31-3.33.06-4.08a11.906,11.906,0,0,1,2.23-2.72c1.01-1,5.39-4.35,6.53-5.18q.8-.579,1.6-1.142c-.74-4.68-1.9-11.589-2.55-16.018-.449-3.108-2.114-12.574-4.032-23.625l-.368.807c-2.5,6.663-7.758,19.091-12.66,26.984,0,0-1.317,2.356-2.983,5.334Q212.3,240.5,209.8,226.218a4.987,4.987,0,0,0-4.759-4.121C188.722,221.575,130.18,219.487,98.622,218.558Z"/><path class="a" d="M355.447,175.452c.567,1.548,1.056,3.051,1.447,4.467,7.111,25.778,10,43.334,14.222,71.556a52.823,52.823,0,0,1-1.042,16.617c-1.612,5.8-6.739,10.1-12.354,12.28s-11.759,2.311-17.751,2.921c-7.594.773-40.779,1.143-45.816,1.217-.1-2.724-2.259-18.714-7.253-28.339-3.345.092-5.569.994-9.54.016-5.64-1.38-8.394-3.889-14.074-5.119-4.45-.96-9.01.88-13.08,2.95a105.514,105.514,0,0,0-12.77,7.678c-.74-4.68-1.9-11.589-2.55-16.018-.449-3.107-2.112-12.563-4.028-23.606l-.372.788a215.686,215.686,0,0,1-15.643,32.318c-1.644-9.477-3.425-19.744-5.047-28.96a4.987,4.987,0,0,0-4.759-4.121c-3.567-.114-9.152-.3-16.032-.541,3.093-11.921,4.963-22.106,7.121-33.948,1.59-8.71,3.16-18.22,6.12-26.56a27.874,27.874,0,0,1,8.34-12.58,32.59,32.59,0,0,1,8.71-5.54l17.512-6.58c.2.254.4.5.608.729,4.285,4.936,10.645,7.852,17.139,8.873A58.34,58.34,0,0,0,276.2,145.1c10.633-2.49,19.4-4.744,28.781-10.095.148-.074,2.9-1.6,2.512-1.393,9.347,3.436,20.44,7.349,28.591,13.716a47.287,47.287,0,0,1,9.029,8.817A77.321,77.321,0,0,1,355.447,175.452Z"/><path class="a" d="M245.512,133.2l3.106-1.376a42.15,42.15,0,0,0,22.372-1.363,45.713,45.713,0,0,0,17.363-11.185,55.969,55.969,0,0,0,5.2-5.732l.027.1a57.007,57.007,0,0,0,4.63,12.59c.93,1.88,5.13,5.47,8.381,7.88-.691.386-1.531.851-1.611.891-9.377,5.351-18.148,7.6-28.781,10.095a58.34,58.34,0,0,1-21.648.853c-6.494-1.021-12.854-3.937-17.139-8.873-.074-.081-.146-.165-.218-.249C240.448,135.428,242.294,134.619,245.512,133.2Z"/><path class="b" d="M306.315,131.521a93.572,93.572,0,0,1-10.081,5.141,100.994,100.994,0,0,1-14.037,4.512,83.53,83.53,0,0,1-15.4,2.892,46.867,46.867,0,0,1-15.352-1.24A24.75,24.75,0,0,1,238.5,134.64a2.414,2.414,0,0,0-3.394,0,2.459,2.459,0,0,0,0,3.394c6.769,8.507,18.123,11.045,28.482,10.948a75.233,75.233,0,0,0,17.162-2.5,120.939,120.939,0,0,0,15.031-4.5,96.92,96.92,0,0,0,12.961-6.318c2.685-1.527.269-5.676-2.423-4.145Z"/><path class="b" d="M221.306,177.178c.972,10.541,3.043,21.04,4.816,31.466,1.918,11.274,3.945,22.531,5.831,33.811,1.107,6.617,2.119,13.254,3.169,19.881a2.418,2.418,0,0,0,2.952,1.676,2.459,2.459,0,0,0,1.677-2.952c-1.7-10.753-3.428-21.5-5.293-32.225-2.163-12.441-4.353-24.879-6.338-37.35-.461-2.9-.911-5.792-1.323-8.7-.042-.3-.084-.593-.125-.889-.02-.142-.127-.93-.086-.623.039.289-.058-.437-.076-.575-.036-.281-.072-.561-.107-.842-.111-.893-.214-1.787-.3-2.683a2.466,2.466,0,0,0-2.4-2.4,2.418,2.418,0,0,0-2.4,2.4Z"/><path class="b" d="M192.1,219.116c3.327-13.442,5.5-27.1,8.15-40.676,1.243-6.359,2.535-13.034,5.188-18.982A28.263,28.263,0,0,1,217.4,146.5c3.355-1.959,7.294-3.046,10.92-4.409l11.651-4.378a2.467,2.467,0,0,0,1.677-2.952,2.42,2.42,0,0,0-2.953-1.676l-10.719,4.028c-3.561,1.338-7.213,2.545-10.7,4.07a37.052,37.052,0,0,0-8.392,5.589,26.649,26.649,0,0,0-6.028,7.209c-3.387,5.8-5,12.617-6.406,19.121-1.5,6.945-2.643,13.967-3.943,20.951-1.483,7.971-3.092,15.916-5.04,23.788-.742,3,3.886,4.278,4.629,1.276Z"/><path class="b" d="M219.9,251.055c5.306-8.6,9.353-18.118,12.9-27.557a2.42,2.42,0,0,0-1.677-2.952,2.452,2.452,0,0,0-2.952,1.676,152.134,152.134,0,0,1-12.418,26.41c-1.627,2.636,2.524,5.05,4.145,2.423Z"/><path class="b" d="M291.27,114.279a42.069,42.069,0,0,0,1.994,6.556,50.508,50.508,0,0,0,2.952,6.748,17.6,17.6,0,0,0,3.622,4.086c1.761,1.606,3.634,3.09,5.545,4.514a2.416,2.416,0,0,0,3.284-.861,2.458,2.458,0,0,0-.861-3.284c-1.583-1.179-3.115-2.433-4.574-3.763-.672-.613-1.332-1.244-1.947-1.915-.14-.152-.274-.307-.41-.462-.112-.128-.32-.409-.11-.12a6.365,6.365,0,0,1-.478-.759A45.605,45.605,0,0,1,295.9,113a2.4,2.4,0,1,0-4.629,1.276Z"/><path class="b" d="M238.761,138.747q3.734-1.608,7.45-3.253a29.854,29.854,0,0,0,4.679-2.176,15.237,15.237,0,0,0,3.98-4.385,2.417,2.417,0,0,0-.861-3.284,2.456,2.456,0,0,0-3.283.861,13.451,13.451,0,0,1-1.252,1.7,11.1,11.1,0,0,1-.842.838c-.3.269.033,0-.164.123-.165.106-.329.213-.5.306-1.455.789-3.057,1.375-4.571,2.044q-3.522,1.556-7.058,3.08a2.406,2.406,0,0,0-.861,3.283,2.475,2.475,0,0,0,3.284.861Z"/><path class="a" d="M225.421,62.142c5.368-4.69,11.456-9.343,16.246-11.666.885-.429,2.018.145,2.372,1.5.716,2.75-.467,6.675,1.629,5.91,3.633-1.326,14.544-8.527,23-11.83l8.374,3.183a23.627,23.627,0,0,1,3.744,2.409,29.21,29.21,0,0,1,4.9,5.222c2.783,3.7,6.312,9.787,10.663,19.629l2.767-1.848c2.761-2.853,7.644-3,10.947-.792a12.234,12.234,0,0,1,4.994,10.282,20.2,20.2,0,0,1-3.923,11.063,29.136,29.136,0,0,1-11.961,9.7,56.61,56.61,0,0,1-10.825,14.359,45.713,45.713,0,0,1-17.363,11.185,42.191,42.191,0,0,1-23.443,1.125,41.674,41.674,0,0,1-11.877-4.763,40.256,40.256,0,0,1-10.953-10.159,54.659,54.659,0,0,1-8.609-15.94,75.727,75.727,0,0,1-3.821-16.1c-.435-3.019-.654-5.587-.772-7.484,0,0-.014-.228-.041-.612l5.78-6.683C219.482,67.55,222.332,64.84,225.421,62.142Z"/><path class="c" d="M314.246,47.687c-1.667-10.614-5.633-21.256-12.857-26.831l-6.649-5.6c-2.367-2.238-10.916-11.44-29.6-12.643-22.149-1.427-38.431,6.067-45.28,14.066l-.363,7.457c-9.285,8.847-14.156,24.553-10.762,45.942.127,1.362.274,2.706.44,4.023.186,1.489.4,2.945.628,4.356.161-.19,7.453-8.62,7.453-8.62,6.1-6.26,16.867-15.7,24.413-19.36.885-.429,2.018.145,2.372,1.5.716,2.75-.467,6.675,1.629,5.91,3.633-1.326,14.544-8.527,23-11.83l8.374,3.183a23.627,23.627,0,0,1,3.744,2.409,29.21,29.21,0,0,1,4.9,5.222c2.783,3.7,6.312,9.787,10.663,19.629l2.767-1.848c2.761-2.853,7.644-3,10.947-.792a10.219,10.219,0,0,1,2.446,2.315c1.81-4.806,2.771-13.992,2.666-18.17A79.957,79.957,0,0,0,314.246,47.687Z"/><path class="b" d="M300.818,76.352a6.512,6.512,0,0,1,8.343-.2c2.77,2.129,3.787,5.919,3.434,9.267-.845,8.03-7.689,14.166-14.579,17.4a2.42,2.42,0,0,0-.861,3.284,2.454,2.454,0,0,0,3.284.861c7.183-3.375,13.306-9.173,15.951-16.784,2.511-7.227.35-16.569-7.4-19.512a11.094,11.094,0,0,0-11.571,2.292c-2.206,2.169,1.188,5.562,3.395,3.394Z"/><path class="b" d="M209.115,77.131c1.182,18.419,7.14,38.316,22.533,49.852,14.534,10.891,35.917,10.617,50.684.422a61.175,61.175,0,0,0,18.939-21.319c1.457-2.723-2.685-5.15-4.145-2.422A58.552,58.552,0,0,1,282.1,121.642a39.891,39.891,0,0,1-45.145,3.146c-7.491-4.551-13.13-12.227-16.695-20.116-3.9-8.632-5.736-18.125-6.34-27.541a2.457,2.457,0,0,0-2.4-2.4,2.421,2.421,0,0,0-2.4,2.4Z"/><path class="b" d="M315.235,75.618a60.9,60.9,0,0,0,2.041-22.829c-.744-8.191-2.541-16.475-6.365-23.814a29.912,29.912,0,0,0-7.825-9.816,2.478,2.478,0,0,0-3.394,0,2.415,2.415,0,0,0,0,3.394c5.634,4.418,8.693,11.221,10.566,17.966a64.653,64.653,0,0,1,2.405,21.4,56.088,56.088,0,0,1-2.057,12.426c-.895,2.963,3.736,4.23,4.629,1.276Z"/><path class="b" d="M206.333,70.077q.4,4.257,1.067,8.483a2.4,2.4,0,0,0,1.1,1.434,2.4,2.4,0,0,0,3.284-.861,2.77,2.77,0,0,0,.242-1.849q-.218-1.368-.4-2.739l.086.638q-.34-2.547-.58-5.106a2.584,2.584,0,0,0-.7-1.7,2.4,2.4,0,0,0-4.1,1.7Z"/><path class="b" d="M217.8,22.438c-9.188,8.834-12.471,21.967-12.518,34.351A88.737,88.737,0,0,0,206.451,70.8a2.416,2.416,0,0,0,2.952,1.676,2.46,2.46,0,0,0,1.677-2.952c-1.935-12.382-1.623-26.257,5.014-37.291a30.122,30.122,0,0,1,5.1-6.4c2.231-2.145-1.166-5.536-3.394-3.394Z"/><path class="b" d="M297.918,13.558a51.674,51.674,0,0,0-6.934-5.707A45.631,45.631,0,0,0,275.65,1.469,70.955,70.955,0,0,0,252.785.487,66.712,66.712,0,0,0,233.3,5.5a37.949,37.949,0,0,0-13.653,9.48c-2.012,2.326,1.369,5.736,3.394,3.395a32.169,32.169,0,0,1,10.659-7.8,58,58,0,0,1,17.11-5.043c12.158-1.776,25.707-.9,36.414,5.607q1.45.882,2.821,1.885.3.217.587.44c.22.167-.061-.047-.087-.067.1.08.2.16.306.242.33.269.66.537.983.814.931.8,1.806,1.652,2.695,2.5,2.24,2.126,5.64-1.262,3.394-3.394Z"/><path class="b" d="M218.951,71.533c3.312-3.388,6.812-6.6,10.443-9.643a77.756,77.756,0,0,1,11.721-8.416,9.546,9.546,0,0,0,1.231-.661c.446-.351.231.025-.049-.109.006,0-.819.034-.595-.175a5.787,5.787,0,0,0,.16.9c.06.595.048,1.2.054,1.795.022,2.094.264,4.757,2.849,5.115,1.611.224,3.3-.854,4.678-1.578,1.821-.955,3.6-1.982,5.4-2.993a117.914,117.914,0,0,1,14.471-7.39,2.474,2.474,0,0,0,1.676-2.953,2.419,2.419,0,0,0-2.953-1.676,113.7,113.7,0,0,0-13.723,6.807c-1.952,1.094-3.891,2.21-5.852,3.286-.758.416-1.518.827-2.291,1.212-.281.14-.565.271-.848.407-.139.067-.551.2,0,.006a3.484,3.484,0,0,0-.509.178l1.87.788c.106.277.133.324.083.14.085-.122.007.318-.021-.182s-.023-.989-.029-1.484a14.062,14.062,0,0,0-.361-3.562,4.612,4.612,0,0,0-2.5-3.043,4.29,4.29,0,0,0-3.931.369,70.884,70.884,0,0,0-12.088,8.316,142.371,142.371,0,0,0-12.279,11.155c-2.161,2.21,1.23,5.607,3.394,3.394Z"/><path class="b" d="M275.834,51.315c4.275,2.244,7.359,5.843,9.976,9.955a124.084,124.084,0,0,1,8.472,16.444,2.417,2.417,0,0,0,3.284.861,2.46,2.46,0,0,0,.861-3.284A120.77,120.77,0,0,0,289.666,58.4c-2.961-4.564-6.536-8.67-11.41-11.227-2.733-1.434-5.162,2.707-2.422,4.144Z"/><path class="b" d="M286.5,286.883c-14.451,9.393-29.421,18-44.3,26.693q-4.318,2.521-8.636,5.045c-2.334,1.368-4.708,3.29-7.51,3.234-4.558-.09-9.116-.286-13.671-.454q-21.993-.813-43.977-1.833c-15.586-.708-31.171-1.456-46.747-2.36-5.747-.334-11.494-.682-17.234-1.123a13.989,13.989,0,0,1-3.081-.32c-2.242-.718-2.1-3.792-2.43-5.689q-1.592-9.134-3.178-18.269-5.547-31.932-11.024-63.878-.288-1.691-.577-3.379a3.631,3.631,0,0,1,.158-2.6c.79-1.4,2.192-1.32,3.6-1.285q4.021.1,8.044.218,10.527.3,21.053.648,24.78.8,49.558,1.661,18.648.639,37.295,1.27c1.3.042,2.575.068,3.3,1.355a10.763,10.763,0,0,1,.748,3.356q.408,2.322.814,4.645,1.623,9.282,3.23,18.567,3.276,18.878,6.586,37.749,1.643,9.291,3.321,18.574a2.421,2.421,0,0,0,2.952,1.676,2.452,2.452,0,0,0,1.676-2.952c-4.655-25.714-9.034-51.476-13.543-77.215-.49-2.794-.6-5.926-2.6-8.128a7.979,7.979,0,0,0-5.934-2.409q-3.294-.106-6.587-.218-9.609-.324-19.218-.657-25.176-.864-50.353-1.707c-13.792-.455-27.6-1.082-41.4-1.259a7.544,7.544,0,0,0-6.432,3.286c-1.594,2.345-1.218,4.83-.769,7.455q1.314,7.685,2.634,15.368,2.779,16.176,5.58,32.349,3.126,18.047,6.269,36.09c.49,2.818.615,5.877,2.7,8.054,1.582,1.654,3.61,2.125,5.8,2.3,2.444.2,4.891.375,7.339.54,14.64.987,29.3,1.707,43.956,2.41q24.131,1.16,48.271,2.118,8.911.354,17.827.662c2.015.067,4.032.144,6.049.184,3.614.072,6.341-1.781,9.309-3.523,14.6-8.566,29.265-17.014,43.682-25.883,3.315-2.039,6.615-4.1,9.878-6.222,2.58-1.677.177-5.835-2.423-4.144Z"/><path class="b" d="M109.131,309.668c26.267,1.561,52.533,3.136,78.818,4.335q11.739.536,23.481.97c3.089.114,3.085-4.686,0-4.8-26.81-.99-53.6-2.434-80.381-4.006q-10.959-.643-21.918-1.3c-3.085-.183-3.075,4.617,0,4.8Z"/><path class="b" d="M314.065,196.688q6.426,24.255,11.7,48.8c.648,3.019,5.276,1.741,4.628-1.276q-5.267-24.532-11.7-48.8c-.79-2.983-5.422-1.718-4.628,1.276Z"/><path class="b" d="M293.931,248.244c12.943,1.158,26.1-.249,39.037-.963,3.072-.17,3.091-4.971,0-4.8-12.933.714-26.094,2.121-39.037.963a2.418,2.418,0,0,0-2.4,2.4,2.45,2.45,0,0,0,2.4,2.4Z"/><path class="a" d="M45.732,36.812C19.287,46.023,2.368,70.888,2.368,98.978c0,41.175,25.672,67.2,66.37,67.2,13,0,24.346-2.538,33.809-7.27,6.736,2.757,11.821,4.713,20.54,7.89-2.194-8.29-3.253-12.507-5.171-19.176,11.153-11.638,17.191-28.286,17.191-48.644,0-35.8-27.274-65.96-66.379-65.96A69.686,69.686,0,0,0,45.732,36.812Z"/><path class="b" d="M45.094,34.5A67.1,67.1,0,0,0,9.653,63.348C1.551,76.957-1.169,92.8.444,108.45c1.409,13.665,6.018,26.92,14.835,37.594,8.343,10.1,20.08,16.877,32.711,20.069a85.7,85.7,0,0,0,22.364,2.451,79.97,79.97,0,0,0,27.4-4.949q3.06-1.178,6-2.634l-1.85.241c6.791,2.778,13.647,5.377,20.54,7.89,1.775.647,3.39-1.3,2.952-2.952-1.693-6.4-3.343-12.812-5.17-19.176l-.618,2.335c8.648-9.082,14-20.739,16.315-33,2.318-12.282,2.282-25.219-1.253-37.267a67.884,67.884,0,0,0-16.286-28.066,66.872,66.872,0,0,0-28.156-17.2,73.889,73.889,0,0,0-39.949-.865c-1.751.454-3.48.982-5.19,1.572-2.9,1-1.655,5.639,1.276,4.628a69.079,69.079,0,0,1,41.945-.9,62.043,62.043,0,0,1,28.714,18.357,63.527,63.527,0,0,1,14.569,30.2,74.5,74.5,0,0,1,.859,19.237,75.389,75.389,0,0,1-4.33,20.61,56.124,56.124,0,0,1-9.153,16.194q-.714.868-1.464,1.707a9.367,9.367,0,0,0-1.787,2.168c-.444,1.009.026,2.07.307,3.061q.375,1.317.74,2.636c.856,3.091,1.673,6.192,2.489,9.294q.754,2.874,1.514,5.747l2.952-2.952c-4.475-1.632-8.943-3.285-13.38-5.02q-2.879-1.125-5.74-2.291a11.909,11.909,0,0,0-1.42-.579,3.224,3.224,0,0,0-2.358.493c-.958.468-1.927.915-2.91,1.326a75.009,75.009,0,0,1-28.253,5.36c-14.254.134-28.611-3.049-40.379-11.267-10.818-7.555-18.219-19.1-21.742-31.846C3.414,105.715,3.65,89.26,9.35,74.766A62.279,62.279,0,0,1,40.964,41.305c1.765-.819,3.571-1.534,5.406-2.179a2.46,2.46,0,0,0,1.677-2.952A2.422,2.422,0,0,0,45.094,34.5Z"/><path class="d" d="M90.272,81.394c-14.453,0-39.189.048-50.235.036,2.325,8.2,5.9,20.859,8.514,29.97,11.086-.031,38.486-.107,44.8-.123a2.011,2.011,0,0,0,1.958-1.559c1.167-5.023,4.528-19.632,5.933-25.849a2.017,2.017,0,0,0-1.961-2.461C97.354,81.4,94.191,81.4,90.272,81.394Z"/><path class="b" d="M47.859,83.812c14.859.221,29.733-.023,44.594-.017q2.41,0,4.82.006a6.3,6.3,0,0,0,1.859.007c.347-.143-.056.148-.079-.063l-.149-.231q.066-.528-.022-.072a4.96,4.96,0,0,0-.314,1.384q-1.623,7.145-3.27,14.283-.775,3.372-1.554,6.744l-.579,2.5c-.045.192-.373,1.028-.048.6.278-.369.285.059.084-.074-.1-.07-.523,0-.653,0q-5.571.016-11.144.039c-8.114.03-16.227.084-24.341.086-3.089,0-3.094,4.8,0,4.8,7.467,0,14.935-.051,22.4-.079q6.182-.023,12.362-.043a10.417,10.417,0,0,0,2.671-.163,4.586,4.586,0,0,0,3.207-3.512c.5-1.98.921-3.982,1.38-5.971q1.787-7.758,3.56-15.518c.524-2.294,1.761-5.272.375-7.432-1.411-2.2-3.827-2.08-6.124-2.086-8.6-.021-17.209,0-25.814.016-7.739.012-15.485.111-23.224,0-3.09-.046-3.091,4.754,0,4.8Z"/><path class="b" d="M54.9,98.2c9.9,0,19.808-.051,29.713-.078q2.264-.008,4.528-.011c3.089,0,3.094-4.8,0-4.8-9.531,0-19.062.054-28.593.078q-2.825.007-5.648.011c-3.089,0-3.094,4.8,0,4.8Z"/><path class="b" d="M60.811,89.045c.536,4.838.931,9.7,1.558,14.524a2.464,2.464,0,0,0,2.4,2.4c1.162-.052,2.573-1.066,2.4-2.4-.627-4.827-1.022-9.686-1.558-14.524a2.458,2.458,0,0,0-2.4-2.4,2.426,2.426,0,0,0-2.4,2.4Z"/><path class="b" d="M78.677,89.045c-.4,4.986-.819,9.972-1.154,14.962a2.412,2.412,0,0,0,2.4,2.4,2.456,2.456,0,0,0,2.4-2.4c.335-4.99.754-9.976,1.154-14.962a2.411,2.411,0,0,0-2.4-2.4,2.461,2.461,0,0,0-2.4,2.4Z"/><path class="b" d="M31.058,75.966c1.2,0,2.393.005,3.589.008a6.422,6.422,0,0,0,1.633,0c-.221.3-.394-.687-.293-.007a27.114,27.114,0,0,0,.921,3.229q1.328,4.668,2.647,9.338,3.142,11.094,6.3,22.183,1.224,4.274,2.468,8.54c.42,1.429.72,3.025,1.846,4.084,1.328,1.248,3,1.2,4.681,1.207l19.63.035q8.9.015,17.8.028c3.088,0,3.093-4.8,0-4.8q-17.839,0-35.678-.06a17.871,17.871,0,0,0-3.163-.005c-.712.135.44-.013.138.329.04-.046-.135-.45-.158-.528q-.234-.783-.464-1.566c-.849-2.888-1.678-5.78-2.506-8.674q-3.2-11.157-6.345-22.327-1.429-5.049-2.863-10.1c-.424-1.489-.708-3.212-1.8-4.37-1.143-1.207-2.651-1.339-4.211-1.342-1.39,0-2.78-.009-4.17-.009-3.089,0-3.094,4.8,0,4.8Z"/><path class="b" d="M58.267,128.027a4.917,4.917,0,0,1,5.014,4.983,4.7,4.7,0,0,1-5.014,5.077c-3.146,0-5.014-1.966-5.014-5.077A4.912,4.912,0,0,1,58.267,128.027Z"/><path class="b" d="M86.9,128.027a4.917,4.917,0,0,1,5.014,4.983,4.7,4.7,0,0,1-5.015,5.077c-3.146,0-5.014-1.966-5.014-5.077A4.912,4.912,0,0,1,86.9,128.027Z"/><path class="a" d="M230.6,280.829c-.006-.117-.006-.231,0-.342a4.835,4.835,0,0,1,1.229-3.1l.886-1.124-1.153.243a4.339,4.339,0,0,1-4.54-1.69c-.84-1.24-.31-3.33.06-4.08a11.906,11.906,0,0,1,2.23-2.72c1.01-1,5.39-4.35,6.53-5.18a105.827,105.827,0,0,1,14.37-8.82c4.07-2.07,8.63-3.91,13.08-2.95,5.68,1.23,8.434,3.739,14.074,5.119,3.972.978,6.195.076,9.54-.012,3.278,6.316,5.336,15.376,6.39,21.626l-.693.207c-1.426.6-5.034,2.836-9.188,4.558a15.17,15.17,0,0,1-11.675-.05,85.285,85.285,0,0,1-10.649,9.971c-.712.571-3.073,2.307-5,.674-1.265-1.073-.969-3.527-.345-4.483,3-4.607,4.282-8.023,7.606-12.269-5.511,3.424-10.812,7.432-16.3,10.909-1.786,1.13-3.274,2.112-5.355,1.747a3.825,3.825,0,0,1-3.219-3.985,5.929,5.929,0,0,1,1.066-2.8c-1.036.482-1.652.767-1.652.767a10.964,10.964,0,0,1-3.21,1.064,3.976,3.976,0,0,1-3.219-.949A3.887,3.887,0,0,1,230.6,280.829Z"/><path class="b" d="M230.918,274.194a2.382,2.382,0,0,1-1.492-.274c-.667-.455-.483-1.209-.28-1.9.147-.5.058-.19,0-.071a4.164,4.164,0,0,1,.366-.621,9.75,9.75,0,0,1,1.023-1.147,19.355,19.355,0,0,1,1.556-1.42,102.968,102.968,0,0,1,9.461-6.964c4.53-2.958,9.449-6.078,14.624-7.759a13.116,13.116,0,0,1,7.763-.342,45.166,45.166,0,0,1,6.519,2.549,30.536,30.536,0,0,0,8.35,2.633c2.706.354,5.311-.194,8.009-.3,3.078-.123,3.094-4.923,0-4.8-2.557.1-5.133.736-7.691.332a31.585,31.585,0,0,1-7.912-2.76,31.648,31.648,0,0,0-8.155-2.747,18.65,18.65,0,0,0-9.422,1.257,81.475,81.475,0,0,0-17.156,9.581,63.658,63.658,0,0,0-9.34,7.347c-2.076,2.135-3.689,5.017-2.723,8.092,1.034,3.292,4.665,4.5,7.773,3.943a2.421,2.421,0,0,0,1.677-2.952,2.453,2.453,0,0,0-2.953-1.676Z"/><path class="b" d="M247.988,261.909a120.958,120.958,0,0,0-12.731,9.011c-3.5,2.779-8.323,6.483-6.787,11.628a5.39,5.39,0,0,0,4.238,3.838c2.283.427,4.339-.33,6.388-1.269a2.419,2.419,0,0,0,.861-3.284,2.456,2.456,0,0,0-3.283-.861,10.383,10.383,0,0,1-1.8.659,2.348,2.348,0,0,1-1.162.072c-.106-.025-.609-.229-.445-.146.135.068-.087-.1-.129-.183a2.011,2.011,0,0,1-.123-1.182c-.029.219.092-.338.121-.418-.057.162.213-.4.3-.526.133-.208.412-.807.652-.935-.142.076-.4.458-.1.146.1-.11.2-.225.305-.335.23-.244.47-.478.713-.709a81.547,81.547,0,0,1,9.722-7.6c1.859-1.307,3.742-2.586,5.69-3.757,2.645-1.589.234-5.741-2.423-4.145Z"/><path class="b" d="M255.834,266.87c-3.625,2.281-7.115,4.76-10.6,7.241-3.18,2.261-6.636,4.372-8.362,8.043-1.639,3.486-.4,7.639,3.4,9.006,4.079,1.468,7.849-1.628,11.032-3.756,4.171-2.791,8.237-5.737,12.474-8.43,2.6-1.653.194-5.809-2.423-4.145-3.98,2.53-7.81,5.283-11.717,7.921a37.664,37.664,0,0,1-5.858,3.7c-.917.391-2.258.447-2.734-.443-.535-1,.213-2.115.994-3.158a20.411,20.411,0,0,1,4.873-4.07c3.74-2.654,7.464-5.326,11.347-7.768,2.608-1.642.2-5.8-2.423-4.145Z"/><path class="b" d="M260.566,276.14a76.553,76.553,0,0,0-4.588,7.5c-1.366,2.407-3.384,4.692-3.151,7.631a5.241,5.241,0,0,0,2.265,4.125,5.4,5.4,0,0,0,4.688.529,10.508,10.508,0,0,0,3.245-1.942q1.862-1.5,3.658-3.08a81.516,81.516,0,0,0,7.2-7.2,2.458,2.458,0,0,0,0-3.394,2.424,2.424,0,0,0-3.395,0q-2.568,2.912-5.4,5.571-1.471,1.375-3.007,2.682-.74.632-1.492,1.25-.414.342-.833.68a2.533,2.533,0,0,1-.364.294c.151-.077.475-.338.129-.1a11.494,11.494,0,0,1-1.007.612c-.357.191.2-.006-.21.071-.142.026-.279.079-.422.1.335-.056.086.043-.019-.029.023.016.528.193-.033-.007-.012,0-.339-.149-.158-.054.274.144-.152-.28.115.146-.148-.236-.132-.452-.087-.115a2.353,2.353,0,0,1-.076-.285q-.054-.264.007.148l-.014-.2c0-.2,0-.4.007-.6.008-.453.014-.031-.01.062.023-.089.033-.182.06-.27s.054-.173.072-.257c.085-.4-.013.039-.065.122.163-.261.32-.525.485-.785.709-1.114,1.378-2.253,2.028-3.4a74.56,74.56,0,0,1,4.521-7.385,2.419,2.419,0,0,0-.861-3.284,2.456,2.456,0,0,0-3.284.861Z"/><path class="b" d="M272.512,285.353a18.267,18.267,0,0,0,12.611-.926c2.98-1.283,5.718-3.059,8.686-4.347a2.416,2.416,0,0,0,.861-3.283,2.462,2.462,0,0,0-3.284-.861c-2.636,1.143-5.08,2.721-7.7,3.911a13.772,13.772,0,0,1-9.9.877c-2.966-.883-4.234,3.748-1.276,4.629Z"/><path class="b" d="M282.525,253.722c3.83,4.962,5.566,11.423,6.984,17.437q1.017,4.311,1.7,8.694.135.874.256,1.75c-.085-.617.027.209.041.322.028.228.056.456.082.685.072.631.142,1.265.168,1.9a2.438,2.438,0,0,0,2.4,2.4c10.855-.158,21.711-.288,32.563-.6,5.107-.146,10.192-.356,15.28-.809,5.13-.457,10.391-.76,15.3-2.432a25.524,25.524,0,0,0,11.068-7.107,20.332,20.332,0,0,0,4.738-10.876,55.329,55.329,0,0,0,.562-12.27c-.408-4.939-1.422-9.889-2.184-14.785q-1.092-7.016-2.285-14.015c-1.513-8.766-3.231-17.5-5.247-26.16-2.128-9.142-4.154-18.512-7.841-27.172s-8.669-16.979-15.915-23.134c-7.432-6.311-16.212-10.3-25.257-13.729-2.133-.809-4.277-1.59-6.42-2.373a2.421,2.421,0,0,0-2.952,1.676,2.45,2.45,0,0,0,1.676,2.952c8.47,3.1,17.1,6.167,24.666,11.188a48.986,48.986,0,0,1,10.417,9.222,58.1,58.1,0,0,1,6.969,10.922c4.195,8.166,6.4,16.911,8.6,25.776q3.137,12.659,5.5,25.49c1.678,9.075,3.109,18.194,4.493,27.317.336,2.218.811,4.841.973,6.682a43.713,43.713,0,0,1,.083,5.5c-.131,3.494-.3,7.388-1.641,10.67-3.363,8.244-13.058,10.7-21.009,11.474-5.5.538-10.968.915-16.486,1.1-11.305.374-22.617.521-33.926.671l-1.722.023,2.4,2.4a69.458,69.458,0,0,0-1.5-10.351,82.088,82.088,0,0,0-4.353-15.38,31.731,31.731,0,0,0-4.035-7.48,2.482,2.482,0,0,0-3.284-.861,2.416,2.416,0,0,0-.861,3.284Z"/><path class="b" d="M247.434,93.348a24.731,24.731,0,0,0-.829,2.673c-.382,1.45-.875,3.28.327,4.492a3.453,3.453,0,0,0,.958.658,4.126,4.126,0,0,0,1.035.375,4.947,4.947,0,0,0,1.037.1c.147-.007.294-.025.442-.028a2.493,2.493,0,0,0,1.7-.7,2.4,2.4,0,0,0-1.7-4.1,6.055,6.055,0,0,1-.841.014l.638.085a1.969,1.969,0,0,1-.462-.133l.573.242a2.843,2.843,0,0,1-.457-.27l.485.376a.17.17,0,0,1-.019-.019l.376.486a.154.154,0,0,1-.023-.039l.241.574a.525.525,0,0,1-.028-.117l.086.638a2.147,2.147,0,0,1,.021-.487l-.085.638a16.061,16.061,0,0,1,.552-2.327c.182-.622.366-1.25.6-1.855a2.413,2.413,0,0,0-.242-1.849,2.4,2.4,0,0,0-3.284-.861l-.485.375a2.392,2.392,0,0,0-.617,1.059Z"/><path class="b" d="M228.311,82.945c-.645,2.238-.185,7.369,3.871,7.771,5.358-.08,5.606-6.29,3.785-9.193C234.476,79.146,230.128,78.189,228.311,82.945Z"/><path class="b" d="M274.28,81.847c.734,2.327.306,7.693-4.108,8.181-5.838.008-6.2-6.474-4.253-9.537C267.51,77.983,272.233,76.911,274.28,81.847Z"/><path class="b" d="M245.621,115.467a18.438,18.438,0,0,0,7.638.5,21.4,21.4,0,0,0,8.1-2.518,2.4,2.4,0,1,0-2.423-4.145c-.25.145-.5.283-.761.413q-.176.087-.354.171c-.046.021-.433.2-.168.081.3-.135-.272.108-.272.108-.127.049-.254.1-.382.142q-.389.139-.783.262c-.567.176-1.143.325-1.724.451q-.465.1-.934.181c-.139.024-.278.045-.417.067-.468.075.2-.013-.094.012a24.588,24.588,0,0,1-3.475.121q-.387-.021-.773-.059c-.293-.03-.335-.042-.017.006-.121-.019-.243-.037-.364-.057a12.067,12.067,0,0,1-1.524-.365,2.422,2.422,0,0,0-2.952,1.676,2.451,2.451,0,0,0,1.676,2.953Z"/></svg>