<?xml version="1.0" encoding="utf-8"?>
<!-- Uploaded to: SVG Repo, www.svgrepo.com, Generator: SVG Repo Mixer Tools -->
<svg width="800px" height="800px" viewBox="-49.69 0 365.228 365.228" xmlns="http://www.w3.org/2000/svg"><defs><style>.a{fill:#ffffff;}.b{fill:#211715;}.c{fill:#f8b1af;}.d{fill:#7a7473;}.e{fill:#66bd6f;}</style></defs><path class="a" d="M178.956,194.136c-1-.4-3.787-1.666-4.155-1.8-5.553-2-5.333-5.575-6.033-9.569a76.846,76.846,0,0,1-1.218-15.208c12.589-7.846,22.3-24.29,24.149-29.307.31-.942.942-2.717,1.5-4.823l1.174-.182a14.741,14.741,0,0,0,6.859-3.092,22.229,22.229,0,0,0,5.753-7.55,35.005,35.005,0,0,0,3.569-18.554,11.68,11.68,0,0,0-1.223-4.7A8.259,8.259,0,0,0,203.4,95.4a8.747,8.747,0,0,0-7,2.048s2-48.03-57.765-48.03c-50,0-59.035,33.4-59.627,44.549a32.33,32.33,0,0,0-.028,3.481,8.751,8.751,0,0,0-7-2.048,8.261,8.261,0,0,0-5.94,3.949,11.68,11.68,0,0,0-1.223,4.7,35.005,35.005,0,0,0,3.569,18.554,22.254,22.254,0,0,0,5.753,7.55,14.746,14.746,0,0,0,6.859,3.092s.845.13,2.236.341a59.521,59.521,0,0,0,11.344,22.146,52.633,52.633,0,0,0,15.3,12.89,77.567,77.567,0,0,1-1.234,14.143c-.7,3.994-.48,7.564-6.033,9.569-.367.133-3,1.3-4.155,1.8,0,0-6.695,29.921,40.712,31.106S178.956,194.136,178.956,194.136Z"/><path class="b" d="M189.384,137.615c-.057.152-.118.3-.176.455-.1.266.22-.47-.032.069-.2.423-.389.848-.595,1.267-.5,1.015-1.041,2.01-1.6,2.993a83.366,83.366,0,0,1-4.718,7.3,61.484,61.484,0,0,1-14.148,14.613,28.508,28.508,0,0,1-9.98,4.674c-3.009.689-1.736,5.318,1.276,4.628,7.3-1.673,13.6-6.429,18.781-11.662a83.477,83.477,0,0,0,12.46-16.317,43.2,43.2,0,0,0,3.363-6.745,2.421,2.421,0,0,0-1.676-2.952,2.452,2.452,0,0,0-2.953,1.676Z"/><path class="c" d="M197.106,135.094c-6.066-6.314-16.052-3.542-21.494,2.812-8.377,9.78-7.932,20.3-7.241,22.963.435,1.674,1.457,3.632,2.79,4.41,5.611,2.667,10.341,3.092,16.011.77a23.341,23.341,0,0,0,12.889-12.422c2.3-5.68,1.719-12.593-2.022-17.447A13.319,13.319,0,0,0,197.106,135.094Z"/><path class="d" d="M121.687,3.062c-13.081,1.492-26.543,6.2-37.454,17.181L89.456,24.7c-8.9,5.5-15.892,16.155-19.1,25.587-3.779,11.1-4.907,26.889-.42,45.547l.032.137a8.2,8.2,0,0,1,2.011-.568,8.751,8.751,0,0,1,7,2.048l7.5-4.468.616-.368c15.864-14.845,24.709-20.991,38.927-32.161.087.99,3.257,8.915,4,9.217.913.372,10.078-5.294,17.537-9.9L160.147,61.3c5.783,1.265,11.21,4.407,16.1,8.611,8.662,7.454,15.628,18.247,19.875,27.849A8.566,8.566,0,0,1,203.4,95.4a8.236,8.236,0,0,1,1.525.379c4.35-11.175,4.987-27.364-.506-42.723-3.862-10.8-13.071-22.091-20.331-25.268l-8.572-6.109C167.1,10.159,153.078,3.094,135.13,2.545A93.614,93.614,0,0,0,121.687,3.062Z"/><path class="b" d="M198.093,99.149a6.262,6.262,0,0,1,8.793.814c1.143,1.507,1.276,3.6,1.362,5.416a32.081,32.081,0,0,1-.279,6.21c-1.141,7.683-5.1,17.24-13.444,19.2-3.006.7-1.733,5.335,1.276,4.628,8.52-2,13.476-10.113,15.785-18A36.625,36.625,0,0,0,213,104.494c-.31-4.125-1.609-7.945-5.382-10.112A11.25,11.25,0,0,0,194.7,95.755a2.421,2.421,0,0,0,0,3.394,2.449,2.449,0,0,0,3.394,0Z"/><path class="b" d="M80.673,95.755a11.211,11.211,0,0,0-11.508-2.037c-4.138,1.689-6.146,5.234-6.667,9.528a35.806,35.806,0,0,0,6.139,24.465c2.852,3.935,6.837,7.018,11.718,7.851a2.47,2.47,0,0,0,2.952-1.676,2.419,2.419,0,0,0-1.676-2.952c-8.722-1.49-12.856-11.082-14.159-18.907a31.489,31.489,0,0,1-.358-6.427c.075-1.836.18-3.931,1.273-5.489a6.232,6.232,0,0,1,8.892-.962,2.462,2.462,0,0,0,3.394,0,2.421,2.421,0,0,0,0-3.394Z"/><path class="b" d="M79.031,125.832A70.148,70.148,0,0,0,88,150.677c5.082,8.264,12.425,15.728,21.074,20.238a40.607,40.607,0,0,0,14.693,4.405,2.415,2.415,0,0,0,2.4-2.4,2.454,2.454,0,0,0-2.4-2.4C106.1,168.7,92.358,152.887,86.81,136.976a78.238,78.238,0,0,1-3.151-12.42,2.419,2.419,0,0,0-2.952-1.676,2.454,2.454,0,0,0-1.676,2.952Z"/><path class="b" d="M182.872,29.865a27.947,27.947,0,0,1,8.9,7.008,54.355,54.355,0,0,1,7.974,11.511c4.644,8.919,6.483,19.458,6.179,29.451a54.307,54.307,0,0,1-2.551,15.158c-.956,2.945,3.677,4.206,4.629,1.276,3.225-9.934,3.43-20.761,1.606-30.986A59.713,59.713,0,0,0,196.46,34.95c-3.071-3.635-6.769-7.257-11.165-9.23a2.475,2.475,0,0,0-3.284.861,2.42,2.42,0,0,0,.861,3.284Z"/><path class="b" d="M93.7,19.985C83.243,23.9,75.482,33.346,70.724,43.159c-4.651,9.591-6.3,20.315-6.092,30.91a105.752,105.752,0,0,0,2.985,22.4c.716,3,5.345,1.732,4.629-1.276-4.858-20.395-4.5-43.765,9.621-60.567,3.541-4.212,7.89-8.063,13.109-10.016a2.466,2.466,0,0,0,1.676-2.952A2.419,2.419,0,0,0,93.7,19.985Z"/><path class="b" d="M177.584,20.472C169.608,9.635,157.463,3.107,144.277,1.018c-13.412-2.125-28.13-.98-40.823,3.965A60.56,60.56,0,0,0,82.536,18.546c-2.188,2.186,1.2,5.581,3.394,3.394,9.478-9.469,22.021-14.823,35.236-16.416,12.543-1.513,26.034-.8,37.468,5.017A41.858,41.858,0,0,1,173.439,22.9a2.474,2.474,0,0,0,3.284.861,2.418,2.418,0,0,0,.861-3.284Z"/><path class="b" d="M150.125,55.366c-5.007,3.073-9.971,6.219-15.048,9.177-1.014.59-2.032,1.174-3.066,1.729-.405.218-.813.432-1.225.635-.16.079-.322.155-.483.231-.294.14-.489.168-.042.026a1.524,1.524,0,0,0-.379.134c-.145.18-.418-.159.034.024a8.12,8.12,0,0,1,1.678.556c.127.1.3.492.042.018-.436-.805-.842-1.617-1.215-2.455-.439-.987-.842-1.975-1.289-3.164-.175-.464-.346-.928-.5-1.4-.1-.294-.347-1.5-.208-.424a2.44,2.44,0,0,0-4.1-1.7c-10,7.848-20.177,15.447-29.741,23.827q-4.983,4.365-9.8,8.91c-2.258,2.118,1.141,5.507,3.394,3.394,9.786-9.18,20.086-17.663,30.7-25.863q4.432-3.425,8.847-6.874l-4.1-1.7a25.042,25.042,0,0,0,2.185,6.325c.762,1.794,1.682,4.923,3.935,5.261,1.772.266,3.743-1.1,5.224-1.914,2.7-1.483,5.335-3.088,7.965-4.693,3.213-1.961,6.408-3.954,9.617-5.923,2.628-1.613.22-5.766-2.423-4.145Z"/><path class="b" d="M159.509,63.614c8.3,1.88,15.156,7.381,20.724,13.6a83.423,83.423,0,0,1,13.382,20.8,2.419,2.419,0,0,0,3.284.861,2.456,2.456,0,0,0,.861-3.283,87.187,87.187,0,0,0-14.418-22.083c-6.035-6.66-13.643-12.5-22.557-14.52-3.008-.682-4.292,3.945-1.276,4.628Z"/><path class="b" d="M107.467,170.354a74.6,74.6,0,0,1-.808,9.719,52.471,52.471,0,0,1-1.121,6.431,5.144,5.144,0,0,1-.784,1.684,5.8,5.8,0,0,1-2.3,1.645c-1.729.758-3.481,1.474-5.212,2.231a2.416,2.416,0,0,0-.861,3.284,2.462,2.462,0,0,0,3.284.861c1-.439,2.006-.882,3.012-1.318.215-.092.428-.187.644-.276-.187.077-.369.14-.075.037a16.128,16.128,0,0,0,2.1-.906,9.532,9.532,0,0,0,4.678-5.5,39.875,39.875,0,0,0,1.232-6.673,84.439,84.439,0,0,0,1.014-11.224c.061-3.09-4.739-3.09-4.8,0Z"/><path class="b" d="M165.138,170.354a84.439,84.439,0,0,0,1.014,11.224,36.449,36.449,0,0,0,1.315,6.905,9.619,9.619,0,0,0,5.065,5.5c.413.194.837.368,1.261.534.162.064.861.341.111.027.384.161.764.334,1.144.5,1.086.479,2.17.963,3.27,1.41a2.415,2.415,0,0,0,2.952-1.677,2.459,2.459,0,0,0-1.676-2.952c-.563-.228.519.226-.207-.085-.206-.088-.411-.178-.617-.268-.475-.208-.949-.419-1.424-.628-.772-.341-1.559-.648-2.334-.982a6.014,6.014,0,0,1-2.277-1.571,4.764,4.764,0,0,1-.867-1.784,51.3,51.3,0,0,1-1.087-6.2,74.975,74.975,0,0,1-.843-9.948c-.06-3.085-4.86-3.1-4.8,0Z"/><path class="e" d="M217.641,362.826c0-2.669,0-5.182-.011-7.569a74.46,74.46,0,0,0,15.253,3.326c2.849.335,12.9-2.694,14.938-4.1,11.728-8.045,16.3-33.811,15.489-45.676-1.772-27.258-2.49-31.841-13.767-62.025a68.546,68.546,0,0,0-5.2-11.646c-4.647-7.686-12.092-13.222-19.6-18.144a250.659,250.659,0,0,0-44.8-23.267c-.571-2.261-5.708-11.808-7.447-16.3-.124-.32-.288-.678-.616-.775-.359-.107-.713.154-1,.4-3.173,2.724-20.59,16.912-22.458,19.2-.454,1.526-1.291,5.075-2.332,8.244-2.154,5.184-4.867,11.63-6.949,16-1.449-3.122-4.153-9.776-5.66-13.349-1.867-5.866-2.977-8.725-3.62-10.89-1.868-2.289-19.285-16.477-22.458-19.2-.284-.244-.639-.5-1-.4-.329.1-.493.455-.617.775-1.786,4.611-7.155,14.556-7.482,16.469A250.6,250.6,0,0,0,53.938,217c-7.513,4.922-14.957,10.458-19.605,18.144a68.546,68.546,0,0,0-5.2,11.646C17.6,277.663,8.561,330.454,2.367,362.826"/><path class="b" d="M215.233,356.438q.007,3.194.008,6.388a2.4,2.4,0,0,0,4.8,0q0-3.194-.008-6.388a2.4,2.4,0,1,0-4.8,0Z"/><path class="b" d="M97.856,191.513A255.092,255.092,0,0,0,55.246,213.3c-6.182,3.945-12.4,8.118-17.463,13.47a41.346,41.346,0,0,0-6.533,8.947,87.415,87.415,0,0,0-4.534,10.722A313.393,313.393,0,0,0,16.435,281.51c-3.222,13.237-6.007,26.579-8.64,39.944C5.384,333.69,3.128,345.955.81,358.208q-.376,1.99-.757,3.98a2.465,2.465,0,0,0,1.676,2.953,2.423,2.423,0,0,0,2.953-1.677c2.243-11.73,4.39-23.479,6.661-35.2,2.554-13.181,5.232-26.342,8.279-39.42,2.806-12.042,5.873-24.061,9.831-35.782,2.131-6.312,4.273-12.912,8.073-18.441,3.921-5.705,9.532-10.08,15.2-13.933a244.22,244.22,0,0,1,41.007-22.315c1.789-.767,3.59-1.5,5.4-2.227a2.474,2.474,0,0,0,1.677-2.952,2.417,2.417,0,0,0-2.953-1.676Z"/><path class="b" d="M56.291,278.123a265.242,265.242,0,0,1,3.141,37.748c.142,9.251.092,18.5.038,27.755q-.055,9.6-.067,19.2c0,3.089,4.8,3.094,4.8,0,0-10.622.109-21.243.125-31.865.015-10.662-.013-21.343-.8-31.981-.551-7.411-1.434-14.8-2.6-22.133a2.418,2.418,0,0,0-2.952-1.676,2.458,2.458,0,0,0-1.677,2.952Z"/><path class="b" d="M179.547,196.141a247.816,247.816,0,0,1,31.8,15.435c5.09,2.933,10.1,6.025,14.951,9.342a66.19,66.19,0,0,1,11.908,10c3.794,4.191,6.224,9.128,8.222,14.374q2.953,7.752,5.708,15.581a145.514,145.514,0,0,1,6.223,22.071c1.622,8.939,2.076,18.459,2.678,27.781a2.456,2.456,0,0,0,2.4,2.4,2.422,2.422,0,0,0,2.4-2.4c-.57-8.829-1.047-17.7-2.411-26.451a130.457,130.457,0,0,0-5.711-21.929c-1.8-5.276-3.732-10.5-5.681-15.727-2.053-5.5-4.14-11.024-7.7-15.758-6.838-9.1-16.972-15.3-26.59-21.085a255.617,255.617,0,0,0-36.921-18.259,2.417,2.417,0,0,0-2.953,1.676,2.458,2.458,0,0,0,1.677,2.952Z"/><path class="b" d="M141.216,219.284c-.981-2.124-1.88-4.286-2.781-6.444-.968-2.319-2.093-4.637-2.861-7.029-.812-2.529-1.673-5.041-2.533-7.554-.5-1.453-.8-3.019-1.893-4.146-2.084-2.152-4.476-4.046-6.756-5.981-3.146-2.669-6.319-5.305-9.493-7.939q-1.92-1.593-3.839-3.187c-1.072-.893-2.306-2.287-3.659-2.66-2.072-.57-3.323.968-4,2.652-.22.544-.076.208-.321.771q-.333.765-.684,1.522c-.969,2.108-2,4.189-3.009,6.275-.873,1.8-1.757,3.587-2.543,5.421-.536,1.253-1.2,2.577-.8,3.967a17.869,17.869,0,0,0,1.715,3.471c1.031,1.855,2.117,3.679,3.225,5.489a114.644,114.644,0,0,0,9.424,13.838,3.711,3.711,0,0,0,4.55,1c1.6-.842,2.274-3,3.057-4.525q2.432-4.742,4.922-9.453c1.446-2.728-2.7-5.157-4.144-2.423q-2.014,3.8-3.984,7.625-.862,1.677-1.721,3.356l-.512,1c-.576,1.126-.441.232,1.028.073.555-.06.383.382.2-.043a2.975,2.975,0,0,0-.358-.462c-2.719-3.559-5.169-7.333-7.533-11.134-1.775-2.856-3.58-5.741-5.073-8.758-.085-.172-.156-.355-.25-.522-.162-.288.159.61.053.1-.059-.285.058.6.057.507,0-.281-.269.592-.047.334a2.414,2.414,0,0,0,.184-.6c.1-.273.207-.542.317-.809-.2.481.178-.392.238-.526.388-.862.793-1.715,1.2-2.566.983-2.05,1.992-4.087,2.972-6.139.472-.989.94-1.981,1.387-2.982a19.643,19.643,0,0,1,1.253-2.765l-.861.861.278-.173-1.211.328h.355l-1.212-.327a1.494,1.494,0,0,1,.614.41c.234.2.47.4.7.593q.978.817,1.96,1.632,2.591,2.151,5.182,4.3c3.67,3.052,7.347,6.1,10.932,9.253a29.15,29.15,0,0,1,3.222,3.032l-.617-1.059a189.412,189.412,0,0,0,9.522,24.812,2.419,2.419,0,0,0,3.284.861,2.456,2.456,0,0,0,.861-3.283Z"/><path class="b" d="M141.216,221.706c1.983-4.174,3.782-8.436,5.573-12.7a57.819,57.819,0,0,0,2.387-6.387c.548-1.9,1.008-3.829,1.562-5.729l-.617,1.059a25.034,25.034,0,0,1,2.672-2.547c1.617-1.436,3.264-2.839,4.915-4.237,3.694-3.128,7.424-6.214,11.15-9.306q1.122-.932,2.242-1.865.438-.366.875-.733a2.756,2.756,0,0,1,.76-.534l-1.211.327h.355l-1.212-.328.279.173-.861-.861a39.752,39.752,0,0,1,2.3,5.039c.866,1.832,1.761,3.651,2.645,5.474q.645,1.326,1.275,2.66.249.528.491,1.058l.243.541c.047.1.3.707.094.206.177.425.291.886.476,1.3.1.227-.038.558-.022-.294,0,.23-.057.219.072-.5-.079.441-.007.028.06-.1a154.648,154.648,0,0,1-11.935,19.2c-.31.424-.623.847-.942,1.265-.048.062-.218.259-.268.347-.09.114-.18.229-.271.342q.835-.582,1.723.362c.1-.342-.832-1.627-1.027-2.008q-.528-1.031-1.057-2.06-2.2-4.28-4.449-8.532c-1.447-2.731-5.592-.308-4.145,2.423q2.2,4.161,4.356,8.349c1.251,2.434,2.463,6.662,5.99,5.95,2.294-.464,3.733-3.3,5-5.081,1.443-2.025,2.823-4.095,4.167-6.186,2.214-3.445,4.389-6.943,6.309-10.563a7.394,7.394,0,0,0,1.214-3.178c.007-1.4-.839-2.866-1.4-4.1-1.742-3.853-3.722-7.594-5.456-11.452-.146-.326-.455-1.032-.5-1.15-.064-.154-.363-.972-.537-1.3a3.152,3.152,0,0,0-4.826-1.078c-.961.677-1.835,1.514-2.737,2.265-5.685,4.731-11.431,9.4-16.986,14.28-.978.86-1.985,1.713-2.883,2.659a5.216,5.216,0,0,0-1.226,2.4c-.392,1.449-.763,2.9-1.173,4.346a79.386,79.386,0,0,1-3.63,9.455c-1.276,2.986-2.572,5.964-3.965,8.9a2.466,2.466,0,0,0,.861,3.283,2.421,2.421,0,0,0,3.284-.861Z"/><path class="b" d="M136.743,220.5q0,31.72.223,63.441.163,29.43.354,58.862c.037,6.676.081,13.352.081,20.028,0,3.089,4.8,3.094,4.8,0,0-14.506-.133-29.013-.223-43.52q-.2-32.22-.353-64.44-.07-17.186-.082-34.371c0-3.089-4.8-3.094-4.8,0Z"/><path class="b" d="M259.128,322.934a36.143,36.143,0,0,1-3.018,17.177,33.5,33.5,0,0,1-4.573,7.484,22.593,22.593,0,0,1-5.6,5.257,25.491,25.491,0,0,1-6.5,2.281,26.7,26.7,0,0,1-6.559,1.05,40.291,40.291,0,0,1-15.6-3.53c-5.864-2.57-10.655-7.641-12.09-13.969-.682-3.011-5.311-1.736-4.628,1.276a25,25,0,0,0,11.976,15.678,45.411,45.411,0,0,0,18.052,5.225c5.306.482,11.032-.932,15.9-2.983,5.552-2.337,9.9-7.974,12.673-13.149a40.922,40.922,0,0,0,4.759-21.8,2.455,2.455,0,0,0-2.4-2.4,2.421,2.421,0,0,0-2.4,2.4Z"/><path class="b" d="M193.7,135.37c5.451,3.589,6.356,11.368,4.252,17.078-2.2,5.979-8,10.554-14.043,12.186a14.467,14.467,0,0,1-5.767.41,15.192,15.192,0,0,1-5.951-1.954c-2.577-1.718-4.983,2.438-2.422,4.145a18.714,18.714,0,0,0,6.48,2.328,19.894,19.894,0,0,0,6.827.14,25.5,25.5,0,0,0,11.643-5.323,22.593,22.593,0,0,0,8.753-21.562,17.352,17.352,0,0,0-7.349-11.593c-2.587-1.7-4.994,2.451-2.423,4.145Z"/><path class="a" d="M165.357,187.936c-3.078-4.652-10.828-16.476-12.228-19.888-.427-1.038.582-3.789,1.461-4.5,1.6-1.282,4.582-.647,5.924.893l.845.969-1.024-1.422c-2.7-3.75-3.278-5.32-3.39-7.583-.1-2.093,2.24-4,4.349-4.177a8.2,8.2,0,0,1,6.507,2.875,5.464,5.464,0,0,1-2.027-7.83c.955-1.72,3.586-2.038,6.34-1.142a15.721,15.721,0,0,1,5.685,4.107l2.921,3.366.182-1.632c.333-3,4.929-3.515,6.133-3.284,2.217.425,4.125,2.319,5.343,3.56,6.812,6.942,13.863,14.253,17.724,23.148,1.832,4.222,1.877,13.913.9,20.664-2.695,10.022-3.822,14.572-6.166,23-1.065,3.831-2.137,7.856-1.237,11.729a23.561,23.561,0,0,0,3.427,7.077c8.059,12.705,26.775,38.57,36.119,50.927.823,3.6-.7,6.682-4.208,10a52.158,52.158,0,0,1-13.262,9.158,24.5,24.5,0,0,1-9.009,2.59,30.013,30.013,0,0,1-8.7-1.433c-4.033-1.367-5.513-3.447-9.261-5.159-6.831-15.828-11.5-28.015-14.976-42.959-2.015-8.665-1.733-17.958-5.736-25.917-1.951-3.88-4.622-5.55-6.422-9.5-3.2-7.034-1.149-13.215-1.977-20.472-.671-5.4.235-8.839-4.239-17.167"/><path class="b" d="M197.608,170c-4.5-5.709-9.193-11.247-13.977-16.718-2.2-2.518-4.261-5.227-6.937-7.263-2.742-2.086-6.571-3.608-10.006-2.356-4.358,1.589-5.33,7.65-2.7,11.136a2.476,2.476,0,0,0,3.284.861,2.417,2.417,0,0,0,.861-3.283c-.79-1.05-1.34-3.165-.119-4.084.836-.629,2.807-.149,3.754.258,3.1,1.332,5.247,4.436,7.4,6.893,5.144,5.881,10.217,11.812,15.054,17.95a2.414,2.414,0,0,0,3.394,0,2.46,2.46,0,0,0,0-3.394Z"/><path class="b" d="M187.493,175.344a206.031,206.031,0,0,1-16-19.287,17.732,17.732,0,0,0-3.924-4.331,10.448,10.448,0,0,0-5.181-1.888c-3.634-.3-7.634,2.41-7.838,6.243-.182,3.416,1.821,6.475,3.714,9.124a2.468,2.468,0,0,0,3.283.861,2.419,2.419,0,0,0,.861-3.284c-.64-.9-1.273-1.8-1.833-2.748a12.808,12.808,0,0,1-.784-1.508,7.873,7.873,0,0,1-.417-1.592c.077.5-.038-.43-.028-.524.094-.847-.028-.148.05-.374.471-1.363,2.289-1.565,3.444-1.294a6.7,6.7,0,0,1,3.824,2.793,215.546,215.546,0,0,0,17.436,21.2c2.115,2.261,5.5-1.139,3.394-3.394Z"/><path class="b" d="M175.768,180.279c-3.334-4.552-6.69-9.094-10.214-13.5-1.377-1.723-2.755-3.869-4.624-5.09a7.217,7.217,0,0,0-6.791-.641,6.652,6.652,0,0,0-3.29,4.708,6.411,6.411,0,0,0,.79,4.733c1.538,2.984,3.37,5.828,5.161,8.663,2.122,3.358,4.293,6.685,6.484,10,1.7,2.565,5.855.163,4.145-2.423-3.445-5.21-6.894-10.435-10.058-15.823-.61-1.039-1.217-2.086-1.754-3.166-.084-.17-.156-.352-.249-.517-.22-.392.084.2.075.191-.311-.193.117-.189-.015.033.081-.136.022-.333.123-.7a4.4,4.4,0,0,1,.354-.942c.1-.2.5-.619.243-.424-.175.131.237-.085.416-.114a2.876,2.876,0,0,1,1.678.4,7.033,7.033,0,0,1,1.489,1.543q1.042,1.233,2.053,2.493c3.408,4.234,6.629,8.617,9.84,13a2.471,2.471,0,0,0,3.283.861,2.418,2.418,0,0,0,.861-3.284Z"/><path class="b" d="M163.284,189.148A33.909,33.909,0,0,1,165.8,194.9a24.907,24.907,0,0,1,.888,4.042c.342,3.2.679,6.5.725,9.706.063,4.441-.43,8.863.46,13.259a20.638,20.638,0,0,0,2.634,6.739c1.06,1.706,2.429,3.175,3.631,4.775,5.452,7.262,5.176,17.3,6.791,25.848a159.219,159.219,0,0,0,6.88,23.948c3.493,9.74,7.624,19.241,11.781,28.712a2.417,2.417,0,0,0,3.284.861,2.461,2.461,0,0,0,.861-3.284c-6.989-15.92-13.688-31.969-17.638-48.955-2.081-8.952-1.788-18.56-6.127-26.887-1.944-3.732-5.371-6.424-6.773-10.472-1.441-4.16-1.052-8.5-.988-12.821a91.7,91.7,0,0,0-.721-11.429,33.884,33.884,0,0,0-4.054-12.22c-1.45-2.729-5.595-.307-4.145,2.423Z"/><path class="b" d="M183.216,152.615c0,.013.2-.8.054-.412.18-.459-.134.046.214-.3a3.284,3.284,0,0,1,.722-.444,10.8,10.8,0,0,1,1.176-.326c.05-.011.825-.1.289-.053.233-.022.468-.016.7-.037a3.512,3.512,0,0,1,.41.015c-.935-.035.128.06.343.141a6.432,6.432,0,0,1,1.5.854,26.511,26.511,0,0,1,3.1,2.954c4.567,4.672,9.13,9.442,12.7,14.944a29.142,29.142,0,0,1,3.866,7.508,30.207,30.207,0,0,1,.922,7.324,67.664,67.664,0,0,1-.3,8.81,57.938,57.938,0,0,1-2.106,8.933c-1.405,5.306-2.807,10.611-4.272,15.9-.979,3.538-1.984,7.266-1.565,10.968.408,3.6,2.084,6.673,4,9.689,5.233,8.249,10.907,16.228,16.572,24.184,6.52,9.156,13.12,18.261,19.909,27.22a2.476,2.476,0,0,0,3.283.861,2.415,2.415,0,0,0,.861-3.283c-6.2-8.183-12.236-16.491-18.209-24.84-6.065-8.478-12.129-16.984-17.758-25.76-1.681-2.62-3.592-5.357-3.9-8.54-.357-3.664.912-7.3,1.872-10.783,1.528-5.536,2.975-11.093,4.45-16.642.423-1.591.957-3.187,1.283-4.8a38.945,38.945,0,0,0,.529-4.785,65.283,65.283,0,0,0,.07-9,27.426,27.426,0,0,0-1.324-7.716,41.358,41.358,0,0,0-4.734-8.729,85,85,0,0,0-7.307-9.126c-2.449-2.7-4.948-5.471-7.644-7.932-2.4-2.189-5.055-3.532-8.327-2.993-2.648.436-5.538,2.021-5.993,4.916a2.475,2.475,0,0,0,1.676,2.952,2.419,2.419,0,0,0,2.952-1.676Z"/><path class="a" d="M261.16,321.479a25.151,25.151,0,0,1-2.793,2.891,72.288,72.288,0,0,1-51.037,18.52c-4.421-.184-9.081-1.171-12.255-4.223s-4.113-8.652-1-11.768c.852-.854,2.024-1.63,2.1-2.827.071-1.171-.952-2.076-1.761-2.933-4.79-5.078-3.084-14.709,3.517-17.523,4.338,1.756,5.732,4.032,10.044,5.494a30.013,30.013,0,0,0,8.7,1.433,24.5,24.5,0,0,0,9.009-2.59,52.158,52.158,0,0,0,13.262-9.158c4.327-4.088,5.637-7.818,3.229-12.618,3.167-1.405,12.468,2.459,15.653,7.305a36.037,36.037,0,0,1,5.614,18.359c-.031,2.706.078,5.524-1.165,7.933A10.769,10.769,0,0,1,261.16,321.479Z"/><path class="b" d="M259.463,319.782a44.343,44.343,0,0,1-8.887,7.838,70.565,70.565,0,0,1-32.316,12.454,64.567,64.567,0,0,1-11.908.362c-3.416-.239-7.2-1.078-9.7-3.586-1.832-1.839-2.912-5.219-1.424-7.569.92-1.453,2.549-2.212,3.114-3.957.7-2.156-.426-3.978-1.864-5.492-4-4.207-2.893-11.672,2.658-14.143l-1.85.242a32.5,32.5,0,0,1,5.177,3.1,21.415,21.415,0,0,0,6.032,2.755,24.03,24.03,0,0,0,12.029.593,40.653,40.653,0,0,0,11.934-5.487,41.683,41.683,0,0,0,10.212-8.571,12.757,12.757,0,0,0,2.947-6.036,12.282,12.282,0,0,0-1.376-7.316l-1.435,3.526a4.529,4.529,0,0,1,.675-.2c-.6.14.228,0,.385,0a4.938,4.938,0,0,1,1.595.192,18.608,18.608,0,0,1,4.353,1.574,15.551,15.551,0,0,1,7.093,6.572,34.359,34.359,0,0,1,3.925,11.83,35.4,35.4,0,0,1,.168,5.968,9.549,9.549,0,0,1-1.912,5.847,2.414,2.414,0,0,0,.861,3.284,2.461,2.461,0,0,0,3.284-.861c2.574-3.39,2.709-7.635,2.594-11.732a35.692,35.692,0,0,0-2.25-11.122c-1.2-3.3-2.725-6.786-5.125-9.406a22.847,22.847,0,0,0-7.985-5.333c-2.581-1.092-6.159-2.36-8.937-1.236a2.452,2.452,0,0,0-1.434,3.526,6.476,6.476,0,0,1-.3,6.79,26.844,26.844,0,0,1-6.375,6.228,53.7,53.7,0,0,1-7.446,4.682,24.376,24.376,0,0,1-8.461,3,20.693,20.693,0,0,1-7.34-.833c-2.84-.741-5.031-2.272-7.461-3.836a15.554,15.554,0,0,0-4.147-2.122c-1.559-.409-3.347.969-4.492,1.9a13.244,13.244,0,0,0-4.085,6.134,13.727,13.727,0,0,0,2.973,13.756,6.735,6.735,0,0,1,.742.807c.127.19,0,.215.107-.151-.1.342-.667.731-.945.991a9.544,9.544,0,0,0-2.523,3.707,11.176,11.176,0,0,0,.552,8.352c2.678,6,9.619,8.063,15.657,8.449a70.474,70.474,0,0,0,18.783-1.507,75.892,75.892,0,0,0,20.074-7.3,69.7,69.7,0,0,0,8.9-5.631,46.848,46.848,0,0,0,8.551-7.638,2.471,2.471,0,0,0,0-3.394A2.418,2.418,0,0,0,259.463,319.782Z"/><path class="b" d="M218.761,322.646,206.3,328.979a2.416,2.416,0,0,0-.861,3.284,2.457,2.457,0,0,0,3.283.861l12.461-6.334a2.415,2.415,0,0,0,.861-3.283,2.456,2.456,0,0,0-3.283-.861Z"/><path class="b" d="M230.074,153.233c2.217,1.128,4.437,2.215,6.74,3.158a2.391,2.391,0,0,0,2.71-1.1,45.042,45.042,0,0,0,3.317-9.771l-3.526,1.435a83.176,83.176,0,0,0,9.668,4.383,2.412,2.412,0,0,0,2.952-1.676c.717-3.5,1.488-7,1.915-10.549l-3.611,2.072c3.757,1.86,7.6,3.549,11.4,5.3a2.472,2.472,0,0,0,3.284-.861,2.42,2.42,0,0,0-.861-3.284c-3.809-1.75-7.648-3.438-11.4-5.3a2.44,2.44,0,0,0-3.611,2.073c-.375,3.119-1.114,6.2-1.743,9.273l2.952-1.677a73.314,73.314,0,0,1-8.521-3.9,2.426,2.426,0,0,0-3.526,1.434,39.683,39.683,0,0,1-2.833,8.624l2.711-1.1c-1.912-.783-3.752-1.737-5.593-2.674-2.747-1.4-5.179,2.741-2.423,4.145Z"/><path class="b" d="M231.142,173.469c2.17-.691,4.337-1.37,6.557-1.881l-2.953-1.676a39.386,39.386,0,0,1,1.463,8.935,2.424,2.424,0,0,0,3.038,2.314,78.313,78.313,0,0,1,9.644-2.617l-3.038-2.315c.133,3.355.348,6.719.2,10.076a2.419,2.419,0,0,0,3.038,2.315c4.008-1.229,8.069-2.275,12.111-3.386,2.975-.818,1.712-5.45-1.276-4.629-4.042,1.111-8.1,2.157-12.111,3.386l3.038,2.314c.144-3.357-.071-6.721-.2-10.076a2.438,2.438,0,0,0-3.038-2.314,78.313,78.313,0,0,0-9.644,2.617l3.038,2.315a45.253,45.253,0,0,0-1.634-10.211,2.448,2.448,0,0,0-2.952-1.676c-2.22.511-4.387,1.189-6.557,1.881-2.932.935-1.679,5.57,1.276,4.628Z"/><path class="b" d="M131.139,146.155c.422-.223.847-.438,1.28-.639.071-.033.506-.211.166-.075-.361.145.189-.069.208-.075.313-.113.625-.224.942-.321a18.313,18.313,0,0,1,5.648-.777,17.646,17.646,0,0,1,5.7.743q.541.169,1.069.383c-.518-.21.218.114.385.2.218.115.433.237.642.369.191.12.885.641.2.1a2.479,2.479,0,0,0,3.394,0,2.416,2.416,0,0,0,0-3.394c-3.129-2.438-7.127-3.181-11.025-3.206a22.894,22.894,0,0,0-11.03,2.542,2.4,2.4,0,0,0,2.423,4.145Z"/><path class="b" d="M138.77,117.926a52.874,52.874,0,0,1,1.248,5.71l-.085-.638a3.463,3.463,0,0,1,.021.788l.086-.638a1.978,1.978,0,0,1-.087.355l.242-.574a1.4,1.4,0,0,1-.125.228l.375-.486a1.116,1.116,0,0,1-.186.184l.485-.375a3.482,3.482,0,0,1-.452.239l.574-.242a3.324,3.324,0,0,1-.763.223l.638-.086a3,3,0,0,1-.715,0l.638.086c-.27-.038-.535-.1-.8-.14a2.655,2.655,0,0,0-1.849.242,2.4,2.4,0,0,0-.861,3.284,2.3,2.3,0,0,0,1.434,1.1c.568.076,1.118.222,1.695.247a5.321,5.321,0,0,0,2.437-.571,3.4,3.4,0,0,0,1.92-2.257,5.857,5.857,0,0,0-.027-2.49c-.311-1.839-.736-3.663-1.209-5.467a2.4,2.4,0,0,0-4.629,1.276Z"/><path class="b" d="M108.071,101.9c-.954,3.1-.332,10.226,5.538,10.833,7.759-.047,8.172-8.664,5.56-12.716C117.031,96.7,110.743,95.316,108.071,101.9Z"/><path class="b" d="M170.2,101.9c.953,3.1.332,10.226-5.538,10.833-7.759-.047-8.172-8.665-5.56-12.717C161.243,96.7,167.531,95.316,170.2,101.9Z"/><path class="b" d="M167.822,88.571a14.143,14.143,0,0,0,3.8,3.971,10.04,10.04,0,0,0,1.815,1.073,11.188,11.188,0,0,0,1.373.542,8,8,0,0,0,1.42.245,2.4,2.4,0,0,0,1.7-.7,2.4,2.4,0,0,0,0-3.394l-.486-.375a2.4,2.4,0,0,0-1.211-.328c-.046,0-.092-.01-.137-.016l.638.086a5.564,5.564,0,0,1-1.329-.393l.574.242a10.441,10.441,0,0,1-2.2-1.329l.486.376a12.211,12.211,0,0,1-2.084-2.062l.376.485a9.8,9.8,0,0,1-.584-.843,2.505,2.505,0,0,0-1.434-1.1,2.4,2.4,0,0,0-2.71,3.526Z"/></svg>