<?xml version="1.0" encoding="utf-8"?>
<!-- Uploaded to: SVG Repo, www.svgrepo.com, Generator: SVG Repo Mixer Tools -->
<svg width="800px" height="800px" viewBox="-43.65 0 316.161 316.161" xmlns="http://www.w3.org/2000/svg"><defs><style>.a{fill:#ffffff;}.b{fill:#85807f;}.c{fill:#211715;}.d{fill:#f2635f;}</style></defs><path class="a" d="M161.471,78.518a7.467,7.467,0,0,1,5.4-1.976A6.928,6.928,0,0,1,173.089,80c2.115,3.667,2.025,10.423.606,14.6-1,2.961-2.651,7.489-6.62,10.737a8.226,8.226,0,0,1-6.344,1.831l-.607-.1a48.614,48.614,0,0,1-2.184,5.925c-1.526,4.141-9.586,18.106-20,24.67a53.49,53.49,0,0,0,.934,7.615c.576,2.989,1.524,5.8,4.979,7.157.228.076,7.905,3.387,11.691,5.008-7.447,5.993-24.522,12.39-39.5,12.35-16.51-.04-31.574-6.892-40.8-13.045,4.465-1.869,10.09-4.251,10.275-4.313,3.337-1.367,4.394-4.168,4.979-7.157a51.7,51.7,0,0,0,.893-6.625,43.894,43.894,0,0,1-13.374-11.273,56.749,56.749,0,0,1-10.771-20.322,8.067,8.067,0,0,1-6.864-1.718c-3.969-3.248-5.615-7.776-6.62-10.737-1.419-4.18-1.509-10.936.605-14.6a6.93,6.93,0,0,1,6.222-3.457,7.464,7.464,0,0,1,5.4,1.976S54.724,34.426,113.724,34.426,161.471,78.518,161.471,78.518Z"/><path class="a" d="M34.268,302.133c-5.375,1.273-10.267,1.133-12.188.512-10.155-3.284-16.7-10.212-18.782-20.573-1.885-9.388-.626-18.752,1.212-30.688a375.179,375.179,0,0,1,10.723-46.528c1.833-5.416,4.306-11.724,5.256-13.614a35.63,35.63,0,0,1,10.45-13.89,73.668,73.668,0,0,1,16.37-10.01c8.36-3.41,19.77-7.31,27.61-10.81,9.2,6.21,24.42,13.22,41.12,13.26,15.08.04,32.28-6.44,39.65-12.47,7.72,3.29,18.07,6.86,25.81,10.02a73.825,73.825,0,0,1,16.36,10.01,35.751,35.751,0,0,1,10.46,13.89c.94,1.89,3.87,9.285,5.254,13.614A375.179,375.179,0,0,1,224.3,251.384c1.838,11.936,3.1,21.3,1.212,30.688-2.08,10.361-8.627,17.289-18.782,20.573-1.922.621-6.813.761-12.188-.512Z"/><path class="b" d="M108.12,2.642A55.07,55.07,0,0,0,79.535,13.278a57.2,57.2,0,0,0-23.62,44.759,63,63,0,0,0,2.338,18.874,9.113,9.113,0,0,1,2.328-.369,7.464,7.464,0,0,1,5.4,1.976l7.632-6.409c5.727-6.381,15.835-16,22.928-19.721.832-.436,1.9.154,2.238,1.544a9.148,9.148,0,0,1,.218,3.328,1.732,1.732,0,0,0,2.469,1.86c5.064-2.812,14.087-8.474,20.485-11.17l9.487,1.165a30.622,30.622,0,0,1,8.738,5.5c5.759,4.955,11.281,11.753,13.726,17.906l7.573,6a7.467,7.467,0,0,1,5.4-1.976,9.25,9.25,0,0,1,2.119.308,60.827,60.827,0,0,0,2.278-18.813c-.954-22.586-12.337-36.615-23.335-44.554A56.553,56.553,0,0,0,113.587,2.412Q110.8,2.412,108.12,2.642Z"/><path class="c" d="M12.918,204.218a361.784,361.784,0,0,0-11.7,53.13C.069,265.711-.7,274.162.946,282.517A28.573,28.573,0,0,0,11.517,299.9a29.862,29.862,0,0,0,10.2,5.138c4.187,1.108,9.062.358,13.191-.59,3.01-.692,1.736-5.321-1.276-4.629-3.233.743-7.371,1.327-10.336.664a24.347,24.347,0,0,1-8.172-3.863,23.593,23.593,0,0,1-9.4-14.66c-1.636-7.5-.946-15.344.064-22.883,1.108-8.271,2.576-16.488,4.345-24.643q3.165-14.6,7.415-28.94c.877-2.968-3.754-4.236-4.629-1.276Z"/><path class="c" d="M211.259,205.494a365.948,365.948,0,0,1,11.268,50.128c1.947,13.166,4.126,30.118-7.27,39.8a26.287,26.287,0,0,1-9,4.856c-3.21,1.018-7.593.347-11.085-.455-3.007-.691-4.291,3.936-1.276,4.629a32.355,32.355,0,0,0,12.307.771,25.641,25.641,0,0,0,9.077-3.908,28.21,28.21,0,0,0,11.958-16.194c2.226-7.841,1.788-16.233.808-24.229-1.077-8.792-2.579-17.535-4.419-26.2q-3.266-15.379-7.743-30.471c-.874-2.955-5.508-1.7-4.629,1.276Z"/><path class="c" d="M17.547,205.494c3.125-9.191,6.346-18.954,13.964-25.52a67.04,67.04,0,0,1,12.853-8.552,135.87,135.87,0,0,1,14.975-6.157c5.636-2.117,11.287-4.215,16.791-6.661H73.707a80.44,80.44,0,0,0,31.8,12.69,72.155,72.155,0,0,0,36.894-4.216,53.748,53.748,0,0,0,14.985-8.059l-2.909.375c5.116,2.172,10.321,4.118,15.523,6.072a125.09,125.09,0,0,1,15.173,6.343,63.377,63.377,0,0,1,12.732,8.713,37.145,37.145,0,0,1,8.54,12.348,118.345,118.345,0,0,1,4.814,12.624c.944,2.928,5.58,1.676,4.629-1.276-1.39-4.308-3.041-8.554-4.83-12.712A43.041,43.041,0,0,0,203.193,179a58.3,58.3,0,0,0-12.963-9.853,97.065,97.065,0,0,0-15.3-6.932c-6.021-2.283-12.1-4.446-18.028-6.964a2.571,2.571,0,0,0-2.909.376,46.622,46.622,0,0,1-11.594,6.331,80.5,80.5,0,0,1-16.2,4.566c-11.723,2-23.576.253-34.614-4a78.437,78.437,0,0,1-13.6-6.854c-1.1-.7-2.287-1.834-3.695-1.446a34.83,34.83,0,0,0-3.765,1.606c-2.6,1.068-5.221,2.079-7.847,3.076-5.336,2.027-10.724,3.942-16,6.128a69.474,69.474,0,0,0-14.8,8.615,42.746,42.746,0,0,0-7.34,6.573,40.264,40.264,0,0,0-5.234,7.959,127.544,127.544,0,0,0-6.374,16.043c-1,2.931,3.638,4.19,4.629,1.276Z"/><path class="c" d="M67.674,76.82a10.51,10.51,0,0,0-11.616-1.6,10.232,10.232,0,0,0-5.141,7.131A26.708,26.708,0,0,0,55.01,102.93c2.893,4.226,7.02,7.281,12.346,6.554a2.414,2.414,0,0,0,1.676-2.952,2.465,2.465,0,0,0-2.952-1.676c-3.736.51-6.619-3.5-8.138-6.359a23.018,23.018,0,0,1-2.751-8.969,20.08,20.08,0,0,1,.208-5.223,12.261,12.261,0,0,1,.622-2.284,6.853,6.853,0,0,1,.493-.951c.054-.088.5-.715.168-.29a4.45,4.45,0,0,1,2.96-1.743,5.392,5.392,0,0,1,4.638,1.178c2.286,2.068,5.691-1.317,3.394-3.4Z"/><path class="c" d="M163.168,80.215a5.394,5.394,0,0,1,4.638-1.178,4.485,4.485,0,0,1,2.961,1.743c-.337-.425.114.2.167.29a6.97,6.97,0,0,1,.494.951,12.182,12.182,0,0,1,.621,2.284,20.038,20.038,0,0,1,.209,5.223,23.023,23.023,0,0,1-2.751,8.969c-1.519,2.854-4.4,6.869-8.138,6.359a2.481,2.481,0,0,0-2.952,1.676,2.415,2.415,0,0,0,1.676,2.952c8.7,1.188,13.759-7.37,16.013-14.54a25.066,25.066,0,0,0,.692-11.215c-.483-3.113-1.772-6.1-4.425-7.94a10.426,10.426,0,0,0-12.6,1.031c-2.295,2.077,1.108,5.463,3.394,3.4Z"/><path class="c" d="M158.709,102.924a58.545,58.545,0,0,1-3.261,9.884c.289-.722.029-.069-.041.082-.092.2-.182.395-.275.591-.231.483-.473.96-.722,1.433-.6,1.134-1.237,2.245-1.9,3.339a59.322,59.322,0,0,1-12.882,15.271,23.562,23.562,0,0,1-9.457,4.89c-3.008.7-1.735,5.324,1.276,4.629,7.263-1.677,13.3-6.991,18.04-12.506a64.692,64.692,0,0,0,10.068-15.224c.165-.365.322-.735.474-1.106.039-.1.271-.657.132-.331-.157.368.048-.1.086-.179.157-.347.3-.7.446-1.053q.264-.641.509-1.289a47.376,47.376,0,0,0,2.139-7.155,2.458,2.458,0,0,0-1.676-2.952,2.423,2.423,0,0,0-2.952,1.676Z"/><path class="c" d="M63.974,104.03A59.8,59.8,0,0,0,72.4,123.849c4.3,6.464,9.938,12.511,16.766,16.333a33.343,33.343,0,0,0,11.405,3.912,2.479,2.479,0,0,0,2.952-1.676,2.418,2.418,0,0,0-1.676-2.953c-14.164-2.092-24.776-14.377-30.135-26.973a57.176,57.176,0,0,1-3.107-9.738c-.682-3.011-5.311-1.737-4.629,1.276Z"/><path class="c" d="M146.648,9.7A61.8,61.8,0,0,0,88.637,5.181,60.162,60.162,0,0,0,56.515,40.924a63.813,63.813,0,0,0-.8,35.766c.766,2.99,5.4,1.723,4.628-1.276a59.269,59.269,0,0,1-.109-30.13,53.416,53.416,0,0,1,10.7-20.649,54.07,54.07,0,0,1,44.23-19.8,55.3,55.3,0,0,1,29.067,9.012c2.6,1.688,5.006-2.466,2.422-4.145Z"/><path class="c" d="M171.5,76.69a69.462,69.462,0,0,0,2.2-14.775,66.514,66.514,0,0,0-1.33-14.674,57.481,57.481,0,0,0-9.709-22.4,59.349,59.349,0,0,0-8.1-9.064c-2.283-2.072-5.687,1.312-3.394,3.4a53.507,53.507,0,0,1,12.295,16.359A57.725,57.725,0,0,1,168.915,60a62,62,0,0,1-2.043,15.41c-.735,3,3.893,4.28,4.628,1.276Z"/><path class="c" d="M104.876,118.816a19.41,19.41,0,0,0,9.353,2.164,15.2,15.2,0,0,0,9.432-2.779,2.413,2.413,0,0,0,0-3.394,2.462,2.462,0,0,0-3.394,0c.726-.565.155-.127-.032-.008s-.382.232-.579.336c-.164.086-.874.368-.221.126-.266.1-.529.2-.8.29a13.937,13.937,0,0,1-2.237.511c.351-.052-.086.006-.222.02-.219.021-.439.04-.659.054q-.793.051-1.59.044-.712,0-1.423-.051c-.218-.015-.435-.032-.652-.054-.018,0-.8-.11-.324-.035a16.028,16.028,0,0,1-2.089-.464c-.293-.088-.578-.193-.867-.291-.616-.211.344.178-.212-.084q-.537-.254-1.062-.53a2.453,2.453,0,0,0-3.284.861,2.427,2.427,0,0,0,.861,3.284Z"/><path class="c" d="M113.025,96.762a43.812,43.812,0,0,1,1.035,4.735l-.086-.638a2.852,2.852,0,0,1,.018.653l.086-.638a1.639,1.639,0,0,1-.072.294l.242-.573a1.2,1.2,0,0,1-.1.189l.375-.486a1.006,1.006,0,0,1-.154.152l.485-.375a3.053,3.053,0,0,1-.375.2l.574-.242a2.741,2.741,0,0,1-.632.184l.638-.086a2.511,2.511,0,0,1-.594,0l.638.086c-.223-.031-.443-.086-.667-.116a1.823,1.823,0,0,0-.957-.043,1.8,1.8,0,0,0-.892.285,2.4,2.4,0,0,0-.861,3.284,2.3,2.3,0,0,0,1.434,1.1c.507.068,1,.2,1.514.22a4.836,4.836,0,0,0,2.228-.53,3.21,3.21,0,0,0,1.781-2.116,5.328,5.328,0,0,0-.023-2.283c-.257-1.525-.61-3.037-1-4.533a2.4,2.4,0,0,0-4.629,1.276Z"/><path class="c" d="M87.964,83.361c-.791,2.569-.275,8.48,4.593,8.983,6.433-.038,6.776-7.184,4.61-10.544C95.394,79.049,90.18,77.905,87.964,83.361Z"/><path class="c" d="M139.484,83.361c.791,2.57.276,8.48-4.592,8.983-6.433-.039-6.776-7.185-4.61-10.545C132.055,79.049,137.269,77.905,139.484,83.361Z"/><path class="c" d="M130.223,51.188a38.5,38.5,0,0,1,12.341,8.995c3.613,3.757,7.046,8.1,9.02,12.972a2.475,2.475,0,0,0,2.952,1.676,2.415,2.415,0,0,0,1.676-2.952,48.151,48.151,0,0,0-9.971-14.794,42.31,42.31,0,0,0-13.6-10.042,2.477,2.477,0,0,0-3.284.861,2.418,2.418,0,0,0,.861,3.284Z"/><path class="c" d="M75.306,73.807c5.665-6.294,11.932-12.463,18.96-17.229.757-.513,1.528-1.008,2.318-1.469a5.462,5.462,0,0,0,.823-.5,8.19,8.19,0,0,1-.941-.168c-.07.057.134.822.091.565a19.4,19.4,0,0,1,.026,2.585,4.292,4.292,0,0,0,1.811,3.384c2.116,1.473,4.136.315,6.075-.8,1.747-1,3.482-2.029,5.225-3.042a123.2,123.2,0,0,1,13.464-7.111,2.414,2.414,0,0,0,.861-3.284,2.463,2.463,0,0,0-3.283-.861,112.485,112.485,0,0,0-11.946,6.232c-1.875,1.08-3.739,2.179-5.61,3.266-.812.471-1.625.941-2.443,1.4a3.757,3.757,0,0,0-.486.272s.571-.178.79-.049c-.062-.037.543.507.342.592.018-.008.06-.937.062-.985.106-2.34-.428-5.255-2.742-6.37-2.136-1.029-4.133.427-5.889,1.556A83.626,83.626,0,0,0,82.275,60.08,138.571,138.571,0,0,0,71.912,70.412c-2.062,2.291,1.322,5.7,3.394,3.395Z"/><path class="c" d="M70.487,161.267c3.257-1.047,6.415-2.635,9.565-3.96q2.557-1.077,5.114-2.152a11.977,11.977,0,0,0,5.1-3.317c2.631-3.277,3.038-7.97,3.426-12a2.417,2.417,0,0,0-2.4-2.4,2.452,2.452,0,0,0-2.4,2.4c-.277,2.872-.561,6.49-2.156,8.757a5.608,5.608,0,0,1-1.034,1.025c-.3.21-.638.351-.951.538-.45.27.281-.111.05-.012-.356.154-.717.3-1.075.448-3.589,1.5-7.172,3.024-10.764,4.52-1.237.515-2.475,1.113-3.752,1.523-2.929.941-1.677,5.578,1.276,4.629Z"/><path class="c" d="M135.709,140.037c.339,3.394.676,7.137,2.267,10.22a9.438,9.438,0,0,0,3.136,3.457,11.586,11.586,0,0,0,2.108,1.037c.082.034.255.065.313.129-.135-.147-.639-.272-.2-.086l.332.141,1.015.434,2.517,1.08q2.855,1.225,5.708,2.452c1.348.579,2.689,1.2,4.06,1.727a2.42,2.42,0,0,0,2.952-1.677A2.453,2.453,0,0,0,158.238,156c-.08-.03-.159-.065-.238-.1-.415-.166.543.231.236.1l-.36-.152q-.96-.409-1.92-.822-2.637-1.129-5.271-2.264-2.274-.977-4.549-1.95a8.367,8.367,0,0,1-3.45-2.053c.192.226-.264-.391-.331-.5q-.123-.207-.234-.422a4.093,4.093,0,0,0-.182-.375,16.426,16.426,0,0,1-.543-1.833,43.435,43.435,0,0,1-.887-5.59,2.466,2.466,0,0,0-2.4-2.4,2.417,2.417,0,0,0-2.4,2.4Z"/><path class="d" d="M116.628,210.6a2.9,2.9,0,0,1-4.45,0c-5.965-7.139-14.7-12.293-24.988-15.1-6.956-1.9-18.273-1.517-24.01.95C53.017,200.819,45.013,208.962,42,220.575a65.743,65.743,0,0,0,1.4,35.333,76.628,76.628,0,0,0,16.562,28.024C72.37,297.858,87.6,306.461,104.11,312.078a31.825,31.825,0,0,0,20.482.005c16.544-5.617,31.841-14.221,44.257-28.151a76.628,76.628,0,0,0,16.562-28.024,65.743,65.743,0,0,0,1.4-35.333c-3.014-11.613-11.018-19.756-21.181-24.125-5.737-2.467-17.054-2.85-24.011-.95C131.333,198.308,122.593,203.462,116.628,210.6Z"/><path class="c" d="M114.931,208.9c-.814.87-1.357-.375-2.021-1.11a40.7,40.7,0,0,0-3.867-3.745,49.571,49.571,0,0,0-9.087-6.13,49.833,49.833,0,0,0-21.246-5.983c-6.8-.253-13.555.627-19.629,3.815a38.912,38.912,0,0,0-14.87,13.619c-3.95,6.287-5.616,13.6-6.189,20.924a67.821,67.821,0,0,0,2.428,24.258c4.379,14.862,13.5,27.962,24.963,38.26a98.76,98.76,0,0,0,18.913,13.3c3.414,1.852,6.93,3.5,10.51,5a82.173,82.173,0,0,0,10.82,3.931,34.106,34.106,0,0,0,13.067.823,51.408,51.408,0,0,0,11.807-3.4,113.432,113.432,0,0,0,20.488-10.247c12.833-8.251,24.216-19.721,31.408-33.257,7.532-14.174,10.506-30.623,7.291-46.449a38.693,38.693,0,0,0-9.36-18.682A36.944,36.944,0,0,0,163.8,193.288c-13.974-3.85-29.67.032-41.179,8.513a44.483,44.483,0,0,0-7.686,7.1,2.464,2.464,0,0,0,0,3.394,2.419,2.419,0,0,0,3.394,0,45.8,45.8,0,0,1,35.942-15.553,35.083,35.083,0,0,1,8.986,1.386,30.712,30.712,0,0,1,7.974,4.121A32.9,32.9,0,0,1,182.9,216.439c2.75,6.468,3.436,13.834,3.265,20.8a64.349,64.349,0,0,1-4.6,22.233c-5.317,13.438-14.979,25.1-26.318,33.93a98.974,98.974,0,0,1-18.622,11.3c-3.207,1.512-6.486,2.86-9.817,4.073a36.559,36.559,0,0,1-11.552,2.594c-7.528.212-14.763-2.855-21.5-5.914a102.3,102.3,0,0,1-18.9-11.063c-11.492-8.567-21.352-20.148-26.979-33.4a64.21,64.21,0,0,1-5.149-21.827c-.373-7.157.188-14.623,2.676-21.4a32.458,32.458,0,0,1,10.9-14.594,35.3,35.3,0,0,1,8.028-4.611,28.956,28.956,0,0,1,8.525-1.716,48.24,48.24,0,0,1,10.079.234,42.947,42.947,0,0,1,9.524,2.672,44.581,44.581,0,0,1,16.941,11.3c1.162,1.276,2.129,2.484,3.912,2.864a5.357,5.357,0,0,0,5.021-1.617C120.435,210.045,117.047,206.643,114.931,208.9Z"/><path class="a" d="M179.238,264.94c-2.806-2.473-7.209-6.167-10.875-9.917-1.021-1.044-1.207-3.682.03-5.483,1.16-1.686,4.01-1.719,5.166-1.234a52.1,52.1,0,0,1,15.762,10.967c8,8.778,2.009,21.382-5.306,31.278-3.777,5.111-9.444,11.444-14.444,11.889a11.619,11.619,0,0,1-11.889-7.223l.178-2.7c-3.241-3.665-7.4-8.6-8.534-11.035a5.3,5.3,0,0,1,.7-4.779c1.33-1.707,3.216-1.545,4.692-1.368-1.307-1.132-2.588-2.33-3.837-3.615a5.386,5.386,0,0,1-1.139-4.5,5.485,5.485,0,0,1,2.041-2.861,6.071,6.071,0,0,1,5.182-.6l-.17-.132c-1.853-1.438-3.4-3.2-3.427-5.55a4.728,4.728,0,0,1,5.328-4.7c2.768.324,5.534,2.254,7.794,3.884,3.073,2.217,9.772,6.3,14,9.025Z"/><path class="c" d="M191.018,257.576a62.678,62.678,0,0,0-8.012-6.7,48.136,48.136,0,0,0-4.625-2.891,20.35,20.35,0,0,0-4.69-2.145,6.74,6.74,0,0,0-8.057,3.882,7.54,7.54,0,0,0-.165,4.959c.582,1.748,2.064,2.938,3.356,4.172,2.819,2.692,5.79,5.214,8.716,7.788a2.458,2.458,0,0,0,3.394,0,2.423,2.423,0,0,0,0-3.394c-2.119-1.864-4.265-3.7-6.355-5.594-1.171-1.063-2.328-2.144-3.455-3.254-.269-.265-.531-.538-.8-.8,0,0-.443-.393-.21-.195.167.142-.035-.061-.063-.125.131.3-.074-.272-.094-.374.033.164-.028-.477-.021-.628a3.22,3.22,0,0,1,.289-1.121,2.57,2.57,0,0,1,.242-.4c-.057.074-.122.144.04.013-.007.006.29-.148.123-.088a4.843,4.843,0,0,1,.861-.231c.291-.048.038,0-.014.006.122-.01.245-.017.367-.015s.714.035.479,0,.331.084.446.121a5.841,5.841,0,0,0,.579.253q.5.228.989.468,1.066.524,2.1,1.108c1.322.743,2.6,1.554,3.851,2.418a55.212,55.212,0,0,1,7.336,6.16c2.2,2.175,5.594-1.217,3.394-3.394Z"/><path class="c" d="M181.7,264.206c-3.368-2.2-6.806-4.282-10.184-6.461-3.421-2.206-6.667-5.117-10.606-6.343-4.145-1.29-8.9.669-9.792,5.214-1.029,5.249,3.5,8.333,7.1,11.122l14.419,11.19a2.48,2.48,0,0,0,3.394,0,2.415,2.415,0,0,0,0-3.394l-10.912-8.469-5.65-4.385c-1.268-.983-2.888-2.033-3.5-3.593a2.431,2.431,0,0,1,.784-2.942c1.114-.774,2.612-.295,3.764.213,3.128,1.379,5.86,3.784,8.729,5.63,3.329,2.143,6.714,4.2,10.031,6.363,2.595,1.692,5-2.462,2.423-4.145Z"/><path class="c" d="M156.667,261.25c-3.549-.494-7,.606-8.712,3.985a7.144,7.144,0,0,0-.4,5.264,10.007,10.007,0,0,0,3.082,4.363c5.389,5.169,11.674,9.239,17.907,13.3,2.6,1.691,5-2.463,2.423-4.145A134.084,134.084,0,0,1,156.721,273.9q-1.689-1.446-3.276-3a3.449,3.449,0,0,1-1.408-2.365c-.18-1.868,1.7-2.884,3.354-2.654a2.484,2.484,0,0,0,2.953-1.676,2.418,2.418,0,0,0-1.677-2.953Z"/><path class="c" d="M154.487,272.9c-3.638-.383-6.855,1.469-7.653,5.19a7.129,7.129,0,0,0,.549,4.859,19.881,19.881,0,0,0,1.636,2.545A133.76,133.76,0,0,0,159.1,297.466a2.4,2.4,0,0,0,3.394-3.394c-2.885-3.141-5.9-6.528-8.413-9.768-.465-.6-1.159-1.54-1.67-2.308-.226-.341-.447-.686-.65-1.04-.08-.141-.159-.282-.233-.426q-.147-.3.017.079a2.619,2.619,0,0,1-.106-.378,3.043,3.043,0,0,1,.606-2.2c.035-.034.483-.341.266-.235.066-.032.756-.2.4-.141a6.919,6.919,0,0,1,1.778.05,2.415,2.415,0,0,0,2.4-2.4,2.454,2.454,0,0,0-2.4-2.4Z"/><path class="c" d="M187.624,260.97c6.459,7.262,1.487,17.558-2.969,24.457a54.9,54.9,0,0,1-9.249,11.255,13.809,13.809,0,0,1-4.986,3.15,8.181,8.181,0,0,1-3.034.18c-.134-.01-.575-.085-.061,0-.214-.034-.426-.071-.638-.114-.377-.078-.751-.172-1.119-.283a7,7,0,0,1-2.006-.89,9.773,9.773,0,0,1-3.808-4.716,2.415,2.415,0,0,0-3.283-.861,2.463,2.463,0,0,0-.861,3.284,13.731,13.731,0,0,0,9.8,8.094,13.2,13.2,0,0,0,10.8-2.37c4.558-3.281,8.142-7.821,11.316-12.4,3.21-4.634,6.123-9.8,7.373-15.349,1.372-6.087.327-12.09-3.884-16.824-2.057-2.313-5.442,1.092-3.394,3.394Z"/><path class="a" d="M60.929,253.427a3.947,3.947,0,0,0-.516-3.887c-1.16-1.686-4.01-1.719-5.166-1.234a52.1,52.1,0,0,0-15.762,10.967c-8,8.778-2.009,21.382,5.305,31.278,3.778,5.111,9.445,11.444,14.445,11.889a11.619,11.619,0,0,0,11.889-7.223l-.178-2.7c3.241-3.665,7.4-8.6,8.534-11.035a5.3,5.3,0,0,0-.7-4.779c-1.33-1.707-3.216-1.545-4.692-1.368,1.307-1.132,2.588-2.33,3.837-3.615a5.386,5.386,0,0,0,1.139-4.5,5.485,5.485,0,0,0-2.041-2.861,6.071,6.071,0,0,0-5.182-.6l.17-.132c1.852-1.438,3.4-3.2,3.426-5.55a4.727,4.727,0,0,0-5.328-4.7c-2.768.324-5.533,2.254-7.793,3.884-3.073,2.217-9.772,6.3-14,9.025l1.248-1.338c2.425-2.5,7.233-7.285,11-11A1.9,1.9,0,0,0,60.929,253.427Z"/><path class="c" d="M41.182,260.97c4.207-4.163,9.216-8.166,14.766-10.372a3.187,3.187,0,0,1,.351-.11,2.2,2.2,0,0,1,.29-.062c-.049.009-.386.029-.1.023a3,3,0,0,1,1.2.077c.165.042.328.093.488.151-.062-.022-.227-.1,0,.025.062.034.139.043.189.1a2.389,2.389,0,0,1,.463,1.207c.026.424-.018.015-.061.393.03-.264-.141.125.1-.154-.508.583-1.119,1.1-1.668,1.647q-1.557,1.539-3.108,3.083c-2.086,2.077-4.171,4.156-6.224,6.266-2.155,2.215,1.236,5.613,3.394,3.394,2.134-2.194,4.3-4.354,6.472-6.513q1.849-1.841,3.706-3.672a5.922,5.922,0,0,0,2.186-4.444,6.456,6.456,0,0,0-6.787-6.372,10.759,10.759,0,0,0-4.664,1.44,44.76,44.76,0,0,0-4.844,2.757,60.9,60.9,0,0,0-9.546,7.743c-2.2,2.176,1.2,5.57,3.394,3.394Z"/><path class="c" d="M49.531,268.351c2.9-1.892,5.854-3.7,8.776-5.56,2.879-1.831,5.6-3.981,8.556-5.684,1.771-1.022,5.924-2.636,6.174.8.117,1.6-1.293,2.858-2.414,3.775-1.753,1.435-3.582,2.786-5.372,4.175l-12.47,9.678a2.412,2.412,0,0,0,0,3.394,2.463,2.463,0,0,0,3.394,0L68.84,269.1c3.584-2.781,8.646-5.581,8.983-10.642a7.17,7.17,0,0,0-8.029-7.445c-4.312.529-7.68,3.568-11.177,5.871-3.8,2.5-7.7,4.84-11.509,7.323-2.578,1.681-.175,5.838,2.423,4.145Z"/><path class="c" d="M73.415,265.879c1.583-.22,3.445.714,3.359,2.485a3.394,3.394,0,0,1-1.413,2.534q-1.584,1.56-3.277,3a133.44,133.44,0,0,1-14.246,10.113c-2.579,1.68-.176,5.837,2.423,4.145,6.233-4.06,12.518-8.13,17.907-13.3A9.958,9.958,0,0,0,81.25,270.5a7.164,7.164,0,0,0-.4-5.264c-1.714-3.38-5.163-4.479-8.712-3.985a2.416,2.416,0,0,0-1.677,2.953,2.466,2.466,0,0,0,2.953,1.676Z"/><path class="c" d="M74.319,277.7c1-.105,1.855-.189,2.33.213A2.868,2.868,0,0,1,77.4,280.1a3.425,3.425,0,0,1-.135.508q.164-.384.017-.079c-.074.144-.153.285-.233.426-.186.325-.387.641-.593.954-.528.8-1.24,1.766-1.727,2.394-2.51,3.239-5.528,6.628-8.413,9.768a2.451,2.451,0,0,0,0,3.394,2.424,2.424,0,0,0,3.394,0A133.76,133.76,0,0,0,79.787,285.5a19.881,19.881,0,0,0,1.636-2.545,7.134,7.134,0,0,0,.549-4.859c-.8-3.721-4.015-5.573-7.653-5.19a2.47,2.47,0,0,0-2.4,2.4,2.415,2.415,0,0,0,2.4,2.4Z"/><path class="c" d="M37.788,257.576a17.887,17.887,0,0,0-4.222,15.008c.829,5.552,3.524,10.782,6.553,15.44A55.891,55.891,0,0,0,50.9,300.845c3.213,2.649,6.789,4.433,11.014,3.908A13.881,13.881,0,0,0,73.2,296.429a2.48,2.48,0,0,0-.861-3.284,2.418,2.418,0,0,0-3.284.861,10.214,10.214,0,0,1-3.225,4.341,9.163,9.163,0,0,1-3.923,1.59c-.139.029-.282.05-.422.072.492-.077.141-.018.035-.007-.276.027-.551.05-.827.062a8.818,8.818,0,0,1-1.35-.016,10.516,10.516,0,0,1-4.685-2.307,46.74,46.74,0,0,1-9.468-10.757,42.771,42.771,0,0,1-6.428-12.946c-1.22-4.605-.848-9.39,2.424-13.068,2.047-2.3-1.336-5.708-3.394-3.394Z"/></svg>