<?xml version="1.0" encoding="utf-8"?>
<!-- Uploaded to: SVG Repo, www.svgrepo.com, Generator: SVG Repo Mixer Tools -->
<svg width="800px" height="800px" viewBox="-77.9 0 401.855 401.855" xmlns="http://www.w3.org/2000/svg"><defs><style>.a{fill:#ffffff;}.b{fill:#211715;}.c{fill:#7a7473;}.d{fill:#f3736f;}</style></defs><path class="a" d="M221.821,220.511c-5.6-12.116-10.959-21.732-20.972-30.5-5.437-4.643-10.465-6.931-17.259-10-8.3-3.388-13.481-4.592-21.969-7.482-7.834,6.42-29.616,12.816-45.66,12.777-17.59-.044-33.632-4.553-42.531-12.042a2.187,2.187,0,0,0-2.147-.227c-7.822,3.343-15.1,6.523-23,9.748a78.9,78.9,0,0,0-17.561,10.748c-5.065,3.97-10.651,16.221-12.317,22.33-6.43,23.582-12.886,104.519-16,147.185l187.748.168c-.007-7.715-.456-17.462-.456-24.261,0-7.9,1.117-33.426,1.6-36.277l.187-1.113L195,305.636a44.451,44.451,0,0,0,23.111,14.074c8.612,2.252,17.294.324,21.333-6.667a33.308,33.308,0,0,0,3.63-10.37c1.421-9.165.094-15.675-2-23.333-.84-3.071-2.713-8.888-4.445-14.667-6.305-22.528-9.185-30.3-14.806-44.162"/><path class="a" d="M161.508,173.622c-4.22-2-11.769-5.576-12.006-5.661-4.932-1.783-4.742-4.951-5.358-8.5a73.042,73.042,0,0,1-.933-7.52c11.862-7.141,21.1-23.114,22.823-27.8.317-.965,1-2.883,1.559-5.117l.293-.027c2.37-.222,5.1-.635,6.88-2.056a20.373,20.373,0,0,0,5.266-6.911A32.044,32.044,0,0,0,183.3,93.05a10.682,10.682,0,0,0-1.12-4.3,7.562,7.562,0,0,0-5.437-3.615,3.9,3.9,0,0,0-.5-.047,7.829,7.829,0,0,0-6.913,2.413,42.379,42.379,0,0,0-6.156-19.481c-2.742-4.583-10.047-13.273-17.434-16.433a28.135,28.135,0,0,0-5.828-1.385,55.254,55.254,0,0,0-6.951-.347c-8.355,5.528-20.314,11.733-25.644,11.884-.531.015-.8-5.481-.985-8.962-.078-1.485-1.606-2.586-2.717-1.738C93.666,58.63,80.1,72.082,70.718,80.813l-7.41,6.13a7.947,7.947,0,0,0-6.369-1.856,3.673,3.673,0,0,0-.5.046A7.56,7.56,0,0,0,51,88.748a10.682,10.682,0,0,0-1.12,4.3,32.044,32.044,0,0,0,3.267,16.985,20.373,20.373,0,0,0,5.266,6.911c1.89,1.507,4.606,3.225,8.084,2.052A54.911,54.911,0,0,0,77.124,140.15a55.5,55.5,0,0,0,13.434,11.907,68.754,68.754,0,0,1-.945,7.406c-.626,3.547-.427,6.715-5.359,8.5-.189.066-5.472,2.532-10.09,4.656,0,0,6.834,31.093,44.167,31.093S161.508,173.622,161.508,173.622Z"/><path class="b" d="M75.375,174.689q4.074-1.874,8.14-3.764a18.63,18.63,0,0,0,1.894-.868c-1.1.669.095-.021.4-.149.38-.161.757-.323,1.121-.519a8.9,8.9,0,0,0,4.71-7.438c.5-3.217,1.056-6.417,1.3-9.667a2.421,2.421,0,0,0-2.4-2.4,2.447,2.447,0,0,0-2.4,2.4c-.215,2.824-.7,5.6-1.133,8.391a13.1,13.1,0,0,1-.653,2.766c.182-.468-.062.1-.116.2-.044.08-.416.643-.293.483s-.353.368-.426.438c-.316.3.115-.034-.3.251a31.419,31.419,0,0,1-4.572,2.175q-3.847,1.781-7.695,3.558a2.418,2.418,0,0,0-.861,3.283,2.455,2.455,0,0,0,3.283.861Z"/><path class="b" d="M140.833,152.265a94.917,94.917,0,0,0,1.453,10.7,9.018,9.018,0,0,0,5.045,6.68,14.186,14.186,0,0,1,1.533.635c-.715-.453-.618-.275-.362-.148s.5.232.751.349q1.591.743,3.178,1.5,3.934,1.858,7.866,3.724a2.467,2.467,0,0,0,3.284-.861,2.422,2.422,0,0,0-.861-3.284c-3.989-1.891-7.949-3.875-11.988-5.654a7.3,7.3,0,0,1-2.926-1.78c.253.3-.233-.369-.281-.454-.072-.131-.139-.263-.2-.4q.12.3.03.06a10.8,10.8,0,0,1-.439-1.639,83.684,83.684,0,0,1-1.281-9.419,2.46,2.46,0,0,0-2.4-2.4,2.42,2.42,0,0,0-2.4,2.4Z"/><path class="b" d="M4.805,363.043q1.352-18.5,2.853-37,1.74-21.276,3.783-42.525c1.277-13.066,2.659-26.126,4.379-39.141,1.159-8.77,2.395-18.191,4.662-26.99A59.532,59.532,0,0,1,27.9,200.645,23.86,23.86,0,0,1,33.89,194.1a79.74,79.74,0,0,1,9.844-6.4c1.882-1.024,3.809-1.961,5.76-2.847a2.418,2.418,0,0,0,.861-3.284,2.458,2.458,0,0,0-3.284-.861A80.68,80.68,0,0,0,36.1,186.673c-3.017,1.981-6.338,4.086-8.781,6.768-4.677,5.132-7.793,11.963-10.147,18.423A75.387,75.387,0,0,0,14.2,223.752c-.918,4.862-1.668,9.754-2.361,14.652-1.826,12.906-3.256,25.867-4.569,38.834-1.448,14.3-2.728,28.616-3.923,42.938Q1.723,339.582.3,359q-.148,2.021-.3,4.04a2.421,2.421,0,0,0,2.4,2.4,2.447,2.447,0,0,0,2.4-2.4Z"/><path class="b" d="M48.921,185.094c4.562-1.864,9.1-3.785,13.631-5.725q3.406-1.458,6.81-2.923a14.856,14.856,0,0,1,2.92-1.219c-.36.063-.325-.093.042.213.434.362.892.7,1.345,1.039,5.957,4.439,13.272,7.08,20.446,8.763a91.567,91.567,0,0,0,25.627,2.357,104.361,104.361,0,0,0,23.5-4.162c6.964-2.033,14.364-4.6,20.076-9.216l-2.336.617c10.128,3.436,20.378,6.205,29.862,11.285,8.742,4.682,15.644,12.033,20.893,20.369a134.269,134.269,0,0,1,8.01,15.23,2.42,2.42,0,0,0,3.284.861,2.456,2.456,0,0,0,.861-3.284c-5.555-12-12.248-23.86-22.806-32.188-11.031-8.7-24.845-12.2-37.914-16.592a3.028,3.028,0,0,0-3.249.308,2.719,2.719,0,0,1-.235.187q-.34.25-.688.491a32.761,32.761,0,0,1-2.852,1.737,56.206,56.206,0,0,1-7.029,3.184,105.369,105.369,0,0,1-18.573,5.074,85.39,85.39,0,0,1-40.171-2.245,45.016,45.016,0,0,1-15.015-7.5c-1.846-1.486-3.605-1.516-5.74-.605q-2.778,1.187-5.552,2.382c-3.6,1.547-7.2,3.095-10.818,4.611q-2.8,1.173-5.606,2.32a2.479,2.479,0,0,0-1.677,2.953,2.418,2.418,0,0,0,2.953,1.676Z"/><path class="b" d="M43.913,363.862v0c.514,2.325,4.069,2.25,4.629,0a15.034,15.034,0,0,0-.041-4q-.189-4.6-.385-9.2-.649-15.345-1.315-30.69-1.425-33.007-2.868-66.016c-.241-5.5-.463-10.993-.729-16.488-.149-3.075-4.95-3.093-4.8,0,.683,14.1,1.242,28.218,1.856,42.326q1.461,33.609,2.9,67.219.249,5.856.493,11.714.068,1.641.133,3.28c.011.284.01.57.031.853.031.4-.137.662.095-.273h4.629v0c-.666-3.015-5.3-1.739-4.629,1.276Z"/><path class="c" d="M178.679,54.874a47.366,47.366,0,0,0-2.408-8.921c-2.634-6.729-6.669-14.5-14.842-18.981l-7.5-5.648c-3.368-6.84-10.5-12.441-19.659-16C122.108.594,97.553,1.668,88.108,9.668L79.219,14.78C67.96,19.039,58.483,32.024,55.213,44.275c-3.342,12.521-3.4,30.626,1.23,40.906q.254-.058.512-.1a7.937,7.937,0,0,1,6.353,1.858l7.41-6.13C80.1,72.082,93.666,58.63,103.609,51.037c1.111-.848,2.639.253,2.717,1.738.181,3.481.454,8.977.985,8.962,5.33-.151,17.289-6.356,25.644-11.884a55.254,55.254,0,0,1,6.951.347,28.135,28.135,0,0,1,5.828,1.385c7.387,3.16,14.692,11.85,17.434,16.433A42.379,42.379,0,0,1,169.324,87.5a7.819,7.819,0,0,1,6.9-2.414,7.414,7.414,0,0,1,.938.2C180.124,75.712,180.325,64.2,178.679,54.874Z"/><path class="b" d="M134.341,45.667a116.693,116.693,0,0,1-14.67,8.807,67.174,67.174,0,0,1-6.966,3.131,32.074,32.074,0,0,1-3.216,1.03c-.463.118-.929.214-1.4.3s.161-.054-.1.018c-.286.078-.878-.1-.087.121l1.059.617c.277.249.45,1.043.367.446-.013-.092-.144-.825-.091-.449-.123-.868-.179-1.748-.242-2.622-.134-1.849.05-3.969-.444-5.759a4.282,4.282,0,0,0-5.318-3.083,9.385,9.385,0,0,0-2.639,1.8q-1.1.868-2.183,1.762c-6.693,5.514-13,11.489-19.3,17.45-3.362,3.185-6.708,6.386-10.1,9.541-2.266,2.11,1.134,5.5,3.394,3.394C81.969,73.28,91.2,64,101.248,55.647a40.182,40.182,0,0,0,3.293-2.656c.413-.428.079-.056-.321-.24.206.095-.522-.125-.262-.178-.044.009,0-.167-.016.181-.006.159.017.327.025.486q.032.6.064,1.191c.082,1.475.167,2.951.314,4.421a10.841,10.841,0,0,0,.6,3.265c1.117,2.553,4.359,1.571,6.451.976a52.711,52.711,0,0,0,7.6-2.967,112.475,112.475,0,0,0,17.774-10.314,2.467,2.467,0,0,0,.861-3.284,2.421,2.421,0,0,0-3.284-.861Z"/><path class="b" d="M144.523,53.324c6,2.629,11.035,7.752,14.842,12.982a39.878,39.878,0,0,1,7.553,20.668,2.455,2.455,0,0,0,2.4,2.4,2.421,2.421,0,0,0,2.4-2.4,44.45,44.45,0,0,0-8.208-23.09c-4.268-5.865-9.821-11.747-16.565-14.7a2.477,2.477,0,0,0-3.283.861,2.417,2.417,0,0,0,.861,3.284Z"/><path class="b" d="M156,20.113C151.128,10.4,140.51,3.98,130.169,1.628a68.572,68.572,0,0,0-30.261.126c-4.846,1.131-9.67,2.96-13.5,6.217a2.421,2.421,0,0,0,0,3.395,2.451,2.451,0,0,0,3.394,0c2.629-2.238,6.51-3.729,10.132-4.676a59.668,59.668,0,0,1,13.715-1.8c9.352-.216,18.7,1.181,26.84,6.021a28.882,28.882,0,0,1,11.362,11.62c1.384,2.762,5.526.334,4.144-2.423Z"/><path class="b" d="M78.581,12.465C68.406,16.476,60.645,25.493,56.047,35.213c-4.643,9.812-5.984,21.107-5.564,31.87a55.5,55.5,0,0,0,3,17.167,2.467,2.467,0,0,0,2.952,1.677,2.42,2.42,0,0,0,1.677-2.953c-3.441-9.231-3.449-19.833-2.246-29.491,1.226-9.836,4.81-19.167,11.316-26.743,3.458-4.027,7.686-7.679,12.677-9.646a2.474,2.474,0,0,0,1.677-2.952,2.418,2.418,0,0,0-2.953-1.677Z"/><path class="b" d="M160.218,29.044c6.618,3.7,10.74,10.057,13.5,16.95,2.918,7.281,3.783,15.318,3.558,23.111a59.992,59.992,0,0,1-2.111,14.465c-.832,2.98,3.8,4.251,4.629,1.276a69.68,69.68,0,0,0,1.591-28.078A51.44,51.44,0,0,0,173.409,35a31.8,31.8,0,0,0-10.768-10.1c-2.7-1.508-5.123,2.636-2.423,4.145Z"/><path class="b" d="M172.03,88.705a5.5,5.5,0,0,1,7.892.945c.989,1.461,1.031,3.488,1.08,5.186a28.571,28.571,0,0,1-.4,5.82,29.07,29.07,0,0,1-4.292,11.034,11.576,11.576,0,0,1-3.669,3.785,12.423,12.423,0,0,1-4.759,1.127,2.467,2.467,0,0,0-2.4,2.4,2.417,2.417,0,0,0,2.4,2.4,21.616,21.616,0,0,0,5.588-1.072,12.274,12.274,0,0,0,4.68-3.273,28.809,28.809,0,0,0,5.918-10.558,33.944,33.944,0,0,0,1.7-12.333c-.2-4.039-1.277-7.882-4.955-10.078a10.5,10.5,0,0,0-12.184,1.223,2.421,2.421,0,0,0,0,3.394,2.448,2.448,0,0,0,3.394,0Z"/><path class="b" d="M166,113.6a26.921,26.921,0,0,1-1.272,6.781c-.254.855-.536,1.7-.819,2.548-.077.228-.15.458-.234.684-.035.1-.078.189-.111.285-.171.5.141-.314.032-.072a58.946,58.946,0,0,1-3.552,6.589,65.828,65.828,0,0,1-14.281,16.826,26.4,26.4,0,0,1-10.554,5.441c-3.009.692-1.735,5.321,1.276,4.629,8.04-1.849,14.721-7.752,19.959-13.855a71.761,71.761,0,0,0,11.146-16.866,35.307,35.307,0,0,0,3.21-12.99c.1-3.09-4.7-3.086-4.8,0Z"/><path class="b" d="M64.543,85.311a10.51,10.51,0,0,0-11.165-1.734c-4.023,1.783-5.577,5.543-5.916,9.7-.667,8.177,1.829,17.476,7.42,23.63,3.005,3.308,7.113,5.581,11.662,4.587,3.016-.659,1.74-5.287-1.276-4.628-3.2.7-6.183-2.127-7.928-4.489A27.925,27.925,0,0,1,52.655,101.1a28.688,28.688,0,0,1-.483-6.038c.038-1.729.078-3.725.992-5.254,1.614-2.7,5.669-3.078,7.985-1.1a2.461,2.461,0,0,0,3.394,0,2.421,2.421,0,0,0,0-3.394Z"/><path class="b" d="M63.077,114.872a63.492,63.492,0,0,0,7.652,20.421A57.658,57.658,0,0,0,87.891,153.2a40.483,40.483,0,0,0,11.7,5.394c2.983.818,4.256-3.811,1.276-4.628-6.921-1.9-12.931-6.043-17.973-11.064a52.146,52.146,0,0,1-12.3-18.918A69.015,69.015,0,0,1,67.706,113.6a2.4,2.4,0,0,0-4.629,1.276Z"/><path class="b" d="M192.553,363.211c-.018-9.7-.62-19.388-.382-29.086.192-7.8.52-15.605.941-23.4.091-1.682.187-3.365.305-5.045.043-.609.087-1.218.143-1.827.02-.219.045-.437.065-.656.058-.659-.084.53-.017.112a2.473,2.473,0,0,0-1.676-2.952,2.418,2.418,0,0,0-2.952,1.676,68.4,68.4,0,0,0-.572,6.976c-.225,3.906-.406,7.814-.571,11.722-.319,7.558-.634,15.124-.492,22.689.123,6.6.4,13.191.408,19.789.006,3.089,4.806,3.094,4.8,0Z"/><path class="b" d="M90.628,83.364a13.425,13.425,0,0,0,5.052-1.385A9.091,9.091,0,0,0,99.285,79a2.4,2.4,0,0,0-2.71-3.525,2.666,2.666,0,0,0-1.434,1.1c-.042.061-.085.12-.129.18l.375-.486a5.575,5.575,0,0,1-.951.929l.485-.376a10.143,10.143,0,0,1-2.23,1.27l.573-.242a10.915,10.915,0,0,1-2.687.746l.638-.085c-.2.024-.39.043-.587.055a2.55,2.55,0,0,0-1.7.7,2.4,2.4,0,0,0,1.7,4.1Z"/><path class="b" d="M187.36,259.555l17.04,11.714a2.4,2.4,0,0,0,2.423-4.145l-17.04-11.714a2.423,2.423,0,0,0-3.284.861,2.448,2.448,0,0,0,.861,3.284Z"/><path class="b" d="M219.506,221.149c2.727,6.727,5.367,13.485,7.667,20.373,3.185,9.542,5.73,19.271,8.691,28.88,2.969,9.637,6.19,19.231,5.168,29.461-.456,4.56-1.755,9.867-4.7,13.51-2.619,3.24-6.736,4.692-10.8,4.818-5.247.164-10.6-1.6-15.283-3.855a42.184,42.184,0,0,1-13.552-10.4c-2.033-2.334-5.416,1.073-3.394,3.394,6.949,7.979,17.071,13.9,27.633,15.37,4.987.692,10.312.168,14.7-2.479,4.583-2.766,7.03-7.408,8.634-12.361,3.379-10.436,1.455-21.441-1.609-31.68-1.712-5.722-3.492-11.417-5.132-17.161-1.4-4.893-2.831-9.777-4.373-14.626-2.642-8.312-5.742-16.443-9.017-24.523a2.475,2.475,0,0,0-2.952-1.676,2.415,2.415,0,0,0-1.677,2.952Z"/><path class="d" d="M103.088,272.571c-3.09,6.587-2.585,14.48-1.639,21.8,4.127.2,5.626,6.509,6.726,9.446a43.423,43.423,0,0,0,33.75,27.587c13.947,2.063,26.844-1.116,39.578-13.284,2.472-2.364,5.847-7.417,9.788-6,2.364-2.4,3.843-6.835,4.984-9.986a26.693,26.693,0,0,0,1.77-11.979c-1.141-10.323-10.013-18.3-18.95-22.477a89.469,89.469,0,0,0-21.83-6.648c-7.3-1.327-14.59-2.925-22.038-3.191-7.106-.253-14.379.7-20.766,3.826a24.537,24.537,0,0,0-10.342,8.99A20.351,20.351,0,0,0,103.088,272.571Z"/><path class="a" d="M127.936,350.1a6.2,6.2,0,0,1,.894-8.311,6.3,6.3,0,0,1,8.415.849c2.438,3.14.835,6.477-1.556,8.43A5.774,5.774,0,0,1,127.936,350.1Z"/><path class="b" d="M130.008,348.891a7.254,7.254,0,0,1-.584-.933.924.924,0,0,0-.106-.216s.172.457.089.215c-.057-.167-.121-.331-.169-.5-.041-.14-.076-.282-.1-.425a1.66,1.66,0,0,0-.05-.281c0-.008.048.542.044.289,0-.3-.029-.587-.01-.885.005-.066.013-.132.017-.2.019-.308-.094.547-.034.247.026-.127.047-.255.076-.381a6.5,6.5,0,0,1,.233-.786,1.431,1.431,0,0,1,.089-.229c.025-.04-.248.52-.122.3.057-.1.1-.214.156-.318a6.9,6.9,0,0,1,.4-.677c.059-.087.3-.41.028-.056s-.035.048.032-.03a4.953,4.953,0,0,1,.44-.453c.073-.065.361-.3.042-.044s.021,0,.107-.056c.1-.064.208-.125.315-.181.071-.038.149-.067.217-.109.229-.142-.5.177-.239.1.232-.071.456-.161.694-.22.138-.035.278-.059.417-.089.369-.08-.6.047-.092.015.245-.016.489-.029.735-.024.143,0,.286.011.429.023.061,0,.122.015.183.018.286.013-.552-.105-.275-.036.256.064.517.1.771.173q.174.05.345.108c.1.035.565.221.159.051s0,.007.087.053c.121.061.241.127.357.2.1.06.2.122.29.187.047.032.092.069.14.1.221.14-.4-.355-.22-.166.163.173.347.332.513.5.229.238-.292-.436-.03-.036.107.164.216.325.312.5.034.058.254.5.252.5-.023.009-.165-.467-.1-.219.019.071.05.141.072.212.044.139.082.28.113.423.016.07.024.142.041.211.067.275-.04-.632-.025-.149.009.268-.037.564-.01.827,0,.021.095-.554.042-.3-.014.067-.023.135-.036.2-.036.178-.082.354-.135.528a3.773,3.773,0,0,0-.134.387c0,.019.223-.486.109-.257-.03.062-.057.126-.087.188a7.22,7.22,0,0,1-.485.839c-.077.115-.17.223-.243.341-.008.013.331-.4.159-.212-.046.052-.089.108-.135.161a8.847,8.847,0,0,1-.68.7c-.1.094-.209.184-.313.276-.337.3.438-.29.126-.1-.216.133-.427.257-.653.373-.311.16.574-.2.115-.056-.142.045-.283.092-.428.13q-.192.051-.387.087c-.056.011-.113.016-.169.029-.27.061.575-.045.3-.042s-.579.039-.871.027c-.137,0-.274-.026-.41-.029-.265-.005.405.038.347.049a.778.778,0,0,1-.232-.039,6.119,6.119,0,0,1-.853-.225c-.055-.02-.11-.041-.166-.06-.315-.106.219.106.249.107a1.3,1.3,0,0,1-.418-.211c-.119-.067-.233-.142-.349-.214-.412-.256.329.3.066.06-.116-.106-.235-.207-.344-.319-.133-.137-.479-.58-.009.035a2.639,2.639,0,0,0-1.434-1.1,2.457,2.457,0,0,0-1.849.242c-.982.633-1.677,2.217-.861,3.284a7.824,7.824,0,0,0,4.119,2.9,8.676,8.676,0,0,0,4.606.041,9.088,9.088,0,0,0,6.19-7.366,7.478,7.478,0,0,0-1.462-5.455,8.038,8.038,0,0,0-4.071-2.852c-2.878-.931-6.509-.35-8.582,1.977a8.63,8.63,0,0,0-.8,10.759,2.6,2.6,0,0,0,1.434,1.1,2.4,2.4,0,0,0,2.71-3.526Z"/><path class="a" d="M141.925,331.4c13.947,2.063,26.844-1.116,39.578-13.284,2.649-2.532,6.332-8.151,10.64-5.6,1.752,1.038,2.149,2.891,2.142,4.839a14.412,14.412,0,0,1-2.518,6.63c-12.384,17.333-32.152,24.686-53.012,19.887-21.318-4.905-36.072-15.605-41.795-37.406-.482-1.834-.84-6.659-.2-8.438s1.455-3.082,3.372-3.538c5.144-1.225,6.837,6.091,8.047,9.322A43.423,43.423,0,0,0,141.925,331.4Z"/><path class="b" d="M141.287,333.715c9.192,1.33,18.3.507,26.812-3.352a52.882,52.882,0,0,0,12.54-8.225,59.173,59.173,0,0,0,4.681-4.567,12.2,12.2,0,0,1,3.873-3.167,1.652,1.652,0,0,1,1.439.022,2.131,2.131,0,0,1,1.208,1.85,8.9,8.9,0,0,1-1.482,5.447c-2.116,3.73-5.461,7.049-8.665,9.849a46.346,46.346,0,0,1-22.718,10.719c-8.651,1.472-17.361.183-25.68-2.352-7.147-2.179-14.133-5.421-19.819-10.327a43.989,43.989,0,0,1-12.435-18.152,28.073,28.073,0,0,1-2.212-11.169c.039-.98.256-2.846,1.542-3.384a1.685,1.685,0,0,1,1.3-.092c.422.12.161-.02.6.3-.079-.057-.3-.261.083.064a5.726,5.726,0,0,1,.521.524,13.137,13.137,0,0,1,1.894,3.634c.558,1.512,1.036,3.046,1.652,4.537a46.788,46.788,0,0,0,7.13,11.89A45.889,45.889,0,0,0,135.13,332.3a41.485,41.485,0,0,0,6.157,1.416,2.477,2.477,0,0,0,2.952-1.676,2.419,2.419,0,0,0-1.676-2.953,41.037,41.037,0,0,1-23.432-12.254,41.526,41.526,0,0,1-7.792-11.591c-1.463-3.23-2.107-6.94-4.215-9.853A7.7,7.7,0,0,0,102.6,292.1a6.788,6.788,0,0,0-6.429,2.081c-2.828,3.259-2.427,8.337-1.664,12.287A48.4,48.4,0,0,0,99,318.715a47.625,47.625,0,0,0,7.065,10.35,53.112,53.112,0,0,0,20.255,13.515c8.6,3.412,18.036,5.521,27.321,5.073a51.032,51.032,0,0,0,26.49-8.83,53.775,53.775,0,0,0,10.73-9.767c2.965-3.55,6.21-7.874,5.782-12.78a6.841,6.841,0,0,0-10.76-5.565,23.5,23.5,0,0,0-4.7,4.275,50.033,50.033,0,0,1-5.474,5.04,41.645,41.645,0,0,1-26.4,9.557,48.707,48.707,0,0,1-6.738-.5,2.48,2.48,0,0,0-2.952,1.677A2.417,2.417,0,0,0,141.287,333.715Z"/><path class="b" d="M193.045,313.754a21.258,21.258,0,0,0,3.842-6.478,62,62,0,0,0,2.565-7.195,25.175,25.175,0,0,0-.587-16.334c-3.874-9.475-12.529-15.695-21.7-19.522a90.563,90.563,0,0,0-16.975-5.076c-6.027-1.217-12.106-2.38-18.208-3.148-11.012-1.387-23.3-.68-32.678,5.9a24.532,24.532,0,0,0-10,14.174c-1.491,5.946-1.044,12.157-.279,18.171a2.477,2.477,0,0,0,2.4,2.4,2.413,2.413,0,0,0,2.4-2.4c-1.174-9.231-1.687-19.61,5.752-26.463,7.42-6.834,18.417-8.122,28.064-7.422a149.121,149.121,0,0,1,16.6,2.533,121.886,121.886,0,0,1,15.964,3.836c8.508,2.813,17.185,7.164,22.2,14.929a19.8,19.8,0,0,1,3.051,14.395,46.445,46.445,0,0,1-2.482,8.14,18.519,18.519,0,0,1-3.323,6.162c-2.1,2.263,1.289,5.665,3.394,3.394Z"/><path class="a" d="M138.607,355.689c-3.753-5.046-.838-10.4,1.314-12.208,3.592-3.021,9.811-2.036,12.361,1.248,3.58,4.613,1.227,9.514-2.287,12.383C147.005,359.553,141.225,359.208,138.607,355.689Z"/><path class="b" d="M140.68,354.478a10.455,10.455,0,0,1-.858-1.371c-.054-.105-.1-.212-.157-.317.021.041.112.3.018.046s-.178-.485-.249-.735c-.059-.206-.111-.414-.154-.624-.028-.138-.051-.275-.073-.414.006.039.026.4.025.127,0-.436-.044-.863-.015-1.3.006-.1.021-.195.025-.292.015-.358-.085.409-.01.063.04-.186.068-.374.111-.559a9.617,9.617,0,0,1,.343-1.154c.041-.113.087-.224.13-.337-.007.019-.2.4-.066.167.086-.15.15-.315.229-.468a10.062,10.062,0,0,1,.593-.994c.044-.065.091-.129.134-.194.087-.132.184-.121,0,0s-.1.12,0,.008c.047-.055.092-.111.139-.166a7.373,7.373,0,0,1,.646-.665c.066-.059.429-.323.176-.153s.2-.124.271-.169c.151-.095.306-.184.463-.268.1-.055.22-.1.318-.159.266-.168-.383.125-.082.031.341-.107.671-.237,1.019-.324.2-.051.408-.088.613-.13.059-.013.367-.06.036-.011s.06,0,.128-.008c.36-.025.718-.043,1.08-.035q.315.007.63.034c.089.007.179.022.269.026.332.017-.426-.093-.1-.012.375.1.758.147,1.132.253q.256.074.507.159c.1.036.656.269.367.132s.186.1.263.134q.267.137.524.289c.145.087.288.178.427.274.068.047.134.1.2.146.258.165-.3-.29-.1-.068.238.256.511.487.753.741.026.027.2.238.044.046-.176-.221.077.112.089.13.16.239.317.477.459.727a7.107,7.107,0,0,1,.37.728c-.149-.353.036.141.073.259.065.2.12.412.166.621.023.1.036.208.061.31.084.349-.023-.545,0,.081.017.409-.008.807-.015,1.214.007-.419.011-.06-.033.155a7.946,7.946,0,0,1-.2.776c-.059.192-.135.378-.2.569.126-.391,0,0-.08.167a10.484,10.484,0,0,1-.713,1.232c-.114.17-.234.337-.356.5.244-.328-.038.035-.141.154a12.815,12.815,0,0,1-1,1.032c-.15.139-.306.27-.459.405-.394.346.316-.191-.043.034-.315.2-.626.38-.959.548-.351.177.421-.135-.1.031-.209.067-.416.136-.628.192q-.282.074-.569.127c-.082.016-.167.025-.248.043-.314.07.459-.024.135-.021-.427,0-.85.056-1.28.039-.2-.007-.4-.039-.6-.043-.286,0,.218.031.209.032a1.2,1.2,0,0,1-.341-.057,9.051,9.051,0,0,1-1.252-.331c-.081-.028-.162-.06-.243-.088-.307-.107-.029.038.1.044a1.9,1.9,0,0,1-.614-.31c-.175-.1-.342-.207-.512-.314-.072-.046-.138-.1-.211-.147.134.081.3.256.079.059-.172-.153-.344-.3-.5-.469-.107-.11-.556-.657-.188-.176a2.466,2.466,0,0,0-3.284-.861c-.982.633-1.677,2.217-.861,3.284a10.244,10.244,0,0,0,5.379,3.737,11.589,11.589,0,0,0,6.167.059c4.318-1.172,7.7-5.535,8.286-9.884a9.972,9.972,0,0,0-2.013-7.3,10.564,10.564,0,0,0-5.308-3.672c-3.868-1.251-8.719-.52-11.511,2.615a11.55,11.55,0,0,0-1,14.44,2.458,2.458,0,0,0,3.284.861A2.428,2.428,0,0,0,140.68,354.478Z"/><path class="a" d="M135.016,268.084a19.412,19.412,0,0,1,.033-6.41,57.047,57.047,0,0,1,3.645-14.123c1.759-4.234,3.9-6.862,7.988-8.945,2.265-1.156,4.6-1.266,10.173-.623a34.876,34.876,0,0,1,10.475,2.225,52.178,52.178,0,0,1,14.507,8.572c4.345,3.657,8.157,8.33,6.178,13.533-3.215,5.072-6.168,11.519-9.313,15.743a11.337,11.337,0,0,1-5.111,3.579,6.391,6.391,0,0,1-4.288-.034,3.137,3.137,0,0,1-1.908-3.521,8.938,8.938,0,0,1-2.7,4.369c-1.352,1.09-3.252,2.093-4.827,1.363-2.1-.972-3.448-2.657-2.964-6.092-1.41,2.82-4,4.649-6.428,3.955a5.977,5.977,0,0,1-3.557-3.4c-.7-2.095-1.85-6.455-1.672-8.638-.267,2.811-2.935,5.535-5.7,4.952-1.1-.232-3.516-2.339-4.2-5C135.221,269.1,135.108,268.6,135.016,268.084Z"/><path class="b" d="M137.33,267.446c-.6-3.567.322-7.607,1.125-11.146a34.7,34.7,0,0,1,4.076-11,12.053,12.053,0,0,1,2.639-2.942,14.993,14.993,0,0,1,2.061-1.329c.282-.156.569-.3.857-.449.412-.207.11-.055.016-.017.132-.053.267-.1.4-.148a8.017,8.017,0,0,1,3.163-.424c1.785.008,3.542.28,5.319.391,6.89.431,13.383,3.278,19.09,7.06,3.129,2.073,6.455,4.579,8.548,7.749a7.7,7.7,0,0,1,1.522,4.5c-.07,1.752-1.309,3.184-2.15,4.659-2.211,3.875-4.184,7.92-6.729,11.6a8.972,8.972,0,0,1-3.9,3.235,4.634,4.634,0,0,1-2.813.312c-.3-.09-.936-.379-.847-.78a2.4,2.4,0,0,0-4.629-1.276,6.841,6.841,0,0,1-1.775,3.049c-.571.514-1.645,1.335-2.461,1.133a2.23,2.23,0,0,1-1.348-1.147,5.472,5.472,0,0,1-.188-2.757c.294-2.4-3.42-3.212-4.472-1.212-.6,1.146-1.631,2.757-3.083,2.908a2.916,2.916,0,0,1-2.512-1.778,20.794,20.794,0,0,1-1.093-3.935,14.6,14.6,0,0,1-.5-4.062,2.424,2.424,0,0,0-2.4-2.4,2.46,2.46,0,0,0-2.4,2.4,3.627,3.627,0,0,1-1.272,2.119,2.4,2.4,0,0,1-.985.492c-.117.021-.27.011-.4.027-.332.039.164.112-.041-.009-1.678-.987-2.448-2.853-2.82-4.824a2.421,2.421,0,0,0-2.952-1.676,2.451,2.451,0,0,0-1.677,2.952c.623,3.3,2.779,7.413,6.386,8.213,4.555,1.011,8.033-3.223,8.564-7.294h-4.8a21.239,21.239,0,0,0,.873,6.2c.543,2.188,1.113,4.328,2.708,6.007a6.936,6.936,0,0,0,6.912,2.12,9.765,9.765,0,0,0,5.637-5.034l-4.473-1.211c-.458,3.746,1.372,7.569,5.243,8.577,4.786,1.247,8.658-3.636,9.958-7.579l-4.629-1.276a5.594,5.594,0,0,0,2.71,6.079c2.105,1.242,4.934,1.029,7.139.186,4.473-1.71,6.957-5.794,9.222-9.757,1.215-2.126,2.367-4.286,3.567-6.42,1.134-2.015,2.673-3.952,3.058-6.272.793-4.77-1.834-8.97-5.089-12.216a48.068,48.068,0,0,0-23.609-12.821c-1.971-.4-3.934-.5-5.921-.716a32.673,32.673,0,0,0-5.763-.277,15.261,15.261,0,0,0-9.267,4.311c-3.631,3.367-5.421,8.42-6.7,13.076-1.407,5.129-2.616,10.8-1.727,16.107a2.42,2.42,0,0,0,2.953,1.676A2.456,2.456,0,0,0,137.33,267.446Z"/><path class="b" d="M169.709,278.718a17.89,17.89,0,0,1,1.106-3.585c.315-.841.647-1.676.988-2.508.1-.255.211-.511.317-.766a1.958,1.958,0,0,1,.088-.206c.212-.493.424-.987.641-1.478.789-1.789,1.612-3.565,2.5-5.308.351-.69.711-1.375,1.1-2.045.154-.267.31-.532.476-.791.135-.212.755-1.018.14-.248a2.474,2.474,0,0,0,0-3.394,2.416,2.416,0,0,0-3.394,0c-2.182,2.733-3.562,6.19-4.961,9.363-.865,1.959-1.7,3.934-2.455,5.938a18.5,18.5,0,0,0-1.17,3.752,2.481,2.481,0,0,0,1.677,2.953,2.417,2.417,0,0,0,2.952-1.677Z"/><path class="b" d="M159.285,278.1c.617-4.456,1.383-8.911,2.377-13.3a51.945,51.945,0,0,1,4.122-11.119,2.462,2.462,0,0,0-.861-3.283,2.421,2.421,0,0,0-3.283.861,58.388,58.388,0,0,0-4.535,11.951c-1.058,4.479-1.818,9.056-2.449,13.613a2.483,2.483,0,0,0,1.677,2.952,2.417,2.417,0,0,0,2.952-1.676Z"/><path class="b" d="M147.651,269.641c.016-.144.1-.661-.01.035.023-.14.043-.28.066-.42.056-.344.119-.687.186-1.029.143-.733.305-1.462.476-2.189.44-1.872.944-3.729,1.483-5.574.552-1.889,1.145-3.766,1.793-5.625.295-.844.6-1.685.926-2.518.14-.359.283-.718.432-1.073-.193.459.078-.171.1-.211.08-.181.163-.361.247-.54a2.47,2.47,0,0,0-.861-3.284,2.421,2.421,0,0,0-3.284.861,78.042,78.042,0,0,0-3.977,11.114,62.184,62.184,0,0,0-2.373,10.453,2.414,2.414,0,0,0,2.4,2.4,2.457,2.457,0,0,0,2.4-2.4Z"/><path class="b" d="M111.58,133.654c.093-.091.519-.436.15-.154s.182-.116.3-.191c.19-.117.385-.224.583-.324.02-.01.4-.2.406-.191s-.558.207-.045.028a13.222,13.222,0,0,1,1.944-.534c.04-.007.745-.117.25-.051.2-.027.4-.045.6-.062.476-.04.953-.058,1.431-.059.435,0,.871.015,1.306.048.24.018.481.04.72.071-.344-.044-.028,0,.143.031a12.02,12.02,0,0,1,1.973.521c.544.2.03.011.035,0s.322.149.342.159c.221.108.439.226.649.356a3.577,3.577,0,0,0,.47.316c-.453-.179-.4-.338-.19-.137.057.056.118.108.175.164a2.4,2.4,0,1,0,3.4-3.394c-2.305-2.254-5.92-2.94-9.018-2.936s-6.709.685-9.014,2.944a2.4,2.4,0,0,0,3.394,3.394Z"/><path class="b" d="M116.645,108.666a48.4,48.4,0,0,1,1.139,5.228l-.085-.638a3.221,3.221,0,0,1,.019.721l.086-.638a1.8,1.8,0,0,1-.08.324l.242-.573a1.216,1.216,0,0,1-.115.209l.376-.486a1.132,1.132,0,0,1-.171.168l.485-.375a3.337,3.337,0,0,1-.414.219l.574-.242a3.035,3.035,0,0,1-.7.2l.638-.086a2.76,2.76,0,0,1-.655,0l.638.086c-.247-.035-.489-.095-.736-.128a2.657,2.657,0,0,0-1.85.241,2.456,2.456,0,0,0-1.1,1.435,2.431,2.431,0,0,0,.242,1.849,2.3,2.3,0,0,0,1.435,1.1c.537.073,1.058.21,1.605.234a5.071,5.071,0,0,0,2.333-.549,3.308,3.308,0,0,0,1.852-2.187,5.607,5.607,0,0,0-.025-2.388c-.283-1.684-.672-3.353-1.1-5a2.4,2.4,0,0,0-4.628,1.276Z"/><path class="b" d="M89.057,94.065c-.854,2.773-.3,9.152,4.952,9.7,6.943-.038,7.316-7.75,4.981-11.378C97.078,89.415,91.451,88.178,89.057,94.065Z"/><path class="b" d="M144.43,94.094c.852,2.773.293,9.152-4.96,9.692-6.944-.046-7.31-7.758-4.97-11.383C136.415,89.435,142.042,88.2,144.43,94.094Z"/><path class="b" d="M102.136,360.991c-6.432,3.029-9.727,9.908-11.892,16.32a10.219,10.219,0,0,0-.714,5.06,5.935,5.935,0,0,0,2.282,4.145c2.76,2,6.357,1.192,9.251-.03,3.479-1.47,6.393-5.231,4.479-9.065-1.629-3.263-5.861-4.169-9.174-3.829-7.086.729-13.343,5.667-17.37,11.308a26.547,26.547,0,0,0-4.57,10.205c-.378,2.043-.2,4.272,1.49,5.691a4.159,4.159,0,0,0,5.739-.177c2.022-2.32-1.36-5.729-3.394-3.4.006-.006.99-.221.81.012a6.28,6.28,0,0,0-.017-.855,16.168,16.168,0,0,1,1.037-3.486,24.73,24.73,0,0,1,3.271-5.878,22.447,22.447,0,0,1,11.045-8.173c1.874-.562,4.614-1.036,6.339.217,1.666,1.209-.683,2.7-1.836,3.146a8.8,8.8,0,0,1-2.868.739,3.181,3.181,0,0,1-1.515-.349c-1.027-1.333.225-3.763.8-5.283,1.834-4.888,4.3-9.854,9.233-12.178a2.421,2.421,0,0,0,.861-3.284,2.453,2.453,0,0,0-3.283-.861Z"/><path class="b" d="M87.532,107.405c-1.6,2.243-3.3,4.355-4.035,7.073-.824,3.048-.395,6.814,2.165,8.949a7.01,7.01,0,0,0,8.381.361,8.109,8.109,0,0,0,3.137-8.195c-.6-3.215-2.79-6.006-4.8-8.475a2.408,2.408,0,0,0-3.394,0,2.468,2.468,0,0,0,0,3.394c.145.178.29.357.433.537.04.051.308.39.134.168s.057.074.073.1c.354.47.7.945,1.031,1.433.28.414.55.836.8,1.27q.173.3.329.611c.051.1.1.2.148.3.024.049.261.592.175.379s.059.165.059.165c.054.152.109.3.157.458.083.269.127.551.209.819s.013.027,0-.041c.015.129.022.261.027.391.008.263-.012.522-.029.784.036-.562-.034.077-.074.23-.058.223-.132.438-.211.653.187-.514-.121.186-.191.3-.05.082-.113.161-.159.245-.154.276.353-.362-.044.049-.159.164-.322.317-.489.472-.2.183.069-.065.1-.08-.109.056-.213.138-.322.2-.083.046-.17.083-.253.129-.291.162.373-.09.046-.029-.09.016-.183.058-.272.082-.013,0-.605.143-.239.068.312-.063-.323.012-.437.011a2.131,2.131,0,0,1-.378-.02c-.01-.023.463.1.172.018-.208-.061-.424-.114-.634-.171.087.023.437.232.058.019-.109-.061-.216-.124-.325-.187-.367-.214-.035-.029.034.037l-.29-.279c-.31-.3.1.221-.123-.146a6.73,6.73,0,0,1-.388-.707c.029.063.108.368.05.085-.04-.2-.123-.387-.169-.584-.028-.118-.048-.238-.073-.357-.078-.375-.021.3,0-.081.014-.276-.023-.558-.01-.836.007-.16.02-.319.036-.477,0,.057-.066.316,0,.045.076-.312.129-.627.216-.937.1-.348.216-.691.348-1.028-.019.049-.121.272-.007.019q.1-.23.217-.453a14.973,14.973,0,0,1,.86-1.428c.666-1,1.4-1.945,2.1-2.92a2.412,2.412,0,0,0-.861-3.284,2.465,2.465,0,0,0-3.284.861Z"/></svg>